<?xml version="1.0" encoding="UTF-8" standalone="no"?>
<!DOCTYPE svg PUBLIC "-//W3C//DTD SVG 1.1//EN"
 "http://www.w3.org/Graphics/SVG/1.1/DTD/svg11.dtd">
<!-- Generated by graphviz version 2.40.1 (20161225.0304)
 -->
<!-- Title: dependencies Pages: 1 -->
<svg width="504pt" height="284pt"
 viewBox="0.00 0.00 504.00 284.00" xmlns="http://www.w3.org/2000/svg" xmlns:xlink="http://www.w3.org/1999/xlink">
<g id="graph0" class="graph" transform="scale(1 1) rotate(0) translate(4 280)">
<title>dependencies</title>
<polygon fill="#ffffff" stroke="transparent" points="-4,4 -4,-280 500,-280 500,4 -4,4"/>
<text text-anchor="start" x="227.0091" y="-42.4" font-family="sans-serif" font-weight="bold" font-size="14.00" fill="#000000">Legend</text>
<polygon fill="#ffffb3" stroke="transparent" points="14,-10 14,-30 34,-30 34,-10 14,-10"/>
<text text-anchor="start" x="37.629" y="-15.4" font-family="sans-serif" font-size="14.00" fill="#000000"> &#160;Declarations</text>
<polygon fill="#8dd3c7" stroke="transparent" points="127,-10 127,-30 147,-30 147,-10 127,-10"/>
<text text-anchor="start" x="150.7251" y="-15.4" font-family="sans-serif" font-size="14.00" fill="#000000"> &#160;Module</text>
<polygon fill="#80b1d3" stroke="transparent" points="213,-10 213,-30 233,-30 233,-10 213,-10"/>
<text text-anchor="start" x="236.7812" y="-15.4" font-family="sans-serif" font-size="14.00" fill="#000000"> &#160;Bootstrap</text>
<polygon fill="#fdb462" stroke="transparent" points="310,-10 310,-30 330,-30 330,-10 310,-10"/>
<text text-anchor="start" x="333.6732" y="-15.4" font-family="sans-serif" font-size="14.00" fill="#000000"> &#160;Providers</text>
<polygon fill="#fb8072" stroke="transparent" points="406,-10 406,-30 426,-30 426,-10 406,-10"/>
<text text-anchor="start" x="429.7258" y="-15.4" font-family="sans-serif" font-size="14.00" fill="#000000"> &#160;Exports</text>
<g id="clust1" class="cluster">
<title>cluster_SectionWithMultipleSubsectionModule</title>
<polygon fill="none" stroke="#000000" stroke-dasharray="1,5" points="42,-70 42,-268 454,-268 454,-70 42,-70"/>
</g>
<g id="clust2" class="cluster">
<title>cluster_SectionWithMultipleSubsectionModule_declarations</title>
<polygon fill="none" stroke="#000000" points="170,-78 170,-130 446,-130 446,-78 170,-78"/>
</g>
<g id="clust4" class="cluster">
<title>cluster_SectionWithMultipleSubsectionModule_imports</title>
<polygon fill="none" stroke="#000000" points="50,-78 50,-130 162,-130 162,-78 50,-78"/>
</g>
<g id="clust5" class="cluster">
<title>cluster_SectionWithMultipleSubsectionModule_exports</title>
<polygon fill="none" stroke="#000000" points="108,-208 108,-260 388,-260 388,-208 108,-208"/>
</g>
<!-- SectionWithMultipleSubsectionComponent -->
<g id="node1" class="node">
<title>SectionWithMultipleSubsectionComponent</title>
<polygon fill="#ffffb3" stroke="#000000" points="438.4804,-122 177.5196,-122 177.5196,-86 438.4804,-86 438.4804,-122"/>
<text text-anchor="middle" x="308" y="-99.8" font-family="Times,serif" font-size="14.00" fill="#000000">SectionWithMultipleSubsectionComponent</text>
</g>
<!-- SectionWithMultipleSubsectionModule -->
<g id="node2" class="node">
<title>SectionWithMultipleSubsectionModule</title>
<polygon fill="#8dd3c7" stroke="#000000" points="367.6979,-187 364.6979,-191 343.6979,-191 340.6979,-187 128.3021,-187 128.3021,-151 367.6979,-151 367.6979,-187"/>
<text text-anchor="middle" x="248" y="-164.8" font-family="Times,serif" font-size="14.00" fill="#000000">SectionWithMultipleSubsectionModule</text>
</g>
<!-- SectionWithMultipleSubsectionComponent&#45;&gt;SectionWithMultipleSubsectionModule -->
<g id="edge1" class="edge">
<title>SectionWithMultipleSubsectionComponent&#45;&gt;SectionWithMultipleSubsectionModule</title>
<path fill="none" stroke="#000000" d="M272.5544,-122.1061C272.5544,-122.1061 272.5544,-140.991 272.5544,-140.991"/>
<polygon fill="#000000" stroke="#000000" points="269.0544,-140.9909 272.5544,-150.991 276.0544,-140.991 269.0544,-140.9909"/>
</g>
<!-- SectionWithMultipleSubsectionComponent  -->
<g id="node4" class="node">
<title>SectionWithMultipleSubsectionComponent </title>
<polygon fill="#fb8072" stroke="#000000" points="380.4808,-252 115.5192,-252 115.5192,-216 380.4808,-216 380.4808,-252"/>
<text text-anchor="middle" x="248" y="-229.8" font-family="Times,serif" font-size="14.00" fill="#000000">SectionWithMultipleSubsectionComponent </text>
</g>
<!-- SectionWithMultipleSubsectionModule&#45;&gt;SectionWithMultipleSubsectionComponent  -->
<g id="edge3" class="edge">
<title>SectionWithMultipleSubsectionModule&#45;&gt;SectionWithMultipleSubsectionComponent </title>
<path fill="none" stroke="#000000" stroke-dasharray="5,2" d="M248,-187.1061C248,-187.1061 248,-205.991 248,-205.991"/>
<polygon fill="#000000" stroke="#000000" points="244.5001,-205.9909 248,-215.991 251.5001,-205.991 244.5001,-205.9909"/>
</g>
<!-- SectorModule -->
<g id="node3" class="node">
<title>SectorModule</title>
<polygon fill="#8dd3c7" stroke="#000000" points="153.8133,-122 150.8133,-126 129.8133,-126 126.8133,-122 58.1867,-122 58.1867,-86 153.8133,-86 153.8133,-122"/>
<text text-anchor="middle" x="106" y="-99.8" font-family="Times,serif" font-size="14.00" fill="#000000">SectorModule</text>
</g>
<!-- SectorModule&#45;&gt;SectionWithMultipleSubsectionModule -->
<g id="edge2" class="edge">
<title>SectorModule&#45;&gt;SectionWithMultipleSubsectionModule</title>
<path fill="none" stroke="#000000" d="M141.0288,-122.1061C141.0288,-122.1061 141.0288,-140.991 141.0288,-140.991"/>
<polygon fill="#000000" stroke="#000000" points="137.5288,-140.9909 141.0288,-150.991 144.5288,-140.991 137.5288,-140.9909"/>
</g>
</g>
</svg>
