<?xml version="1.0" encoding="UTF-8" standalone="no"?>
<!DOCTYPE svg PUBLIC "-//W3C//DTD SVG 1.1//EN"
 "http://www.w3.org/Graphics/SVG/1.1/DTD/svg11.dtd">
<!-- Generated by graphviz version 2.40.1 (20161225.0304)
 -->
<!-- Title: dependencies Pages: 1 -->
<svg width="504pt" height="284pt"
 viewBox="0.00 0.00 504.00 284.00" xmlns="http://www.w3.org/2000/svg" xmlns:xlink="http://www.w3.org/1999/xlink">
<g id="graph0" class="graph" transform="scale(1 1) rotate(0) translate(4 280)">
<title>dependencies</title>
<polygon fill="#ffffff" stroke="transparent" points="-4,4 -4,-280 500,-280 500,4 -4,4"/>
<text text-anchor="start" x="227.0091" y="-42.4" font-family="sans-serif" font-weight="bold" font-size="14.00" fill="#000000">Legend</text>
<polygon fill="#ffffb3" stroke="transparent" points="14,-10 14,-30 34,-30 34,-10 14,-10"/>
<text text-anchor="start" x="37.629" y="-15.4" font-family="sans-serif" font-size="14.00" fill="#000000"> &#160;Declarations</text>
<polygon fill="#8dd3c7" stroke="transparent" points="127,-10 127,-30 147,-30 147,-10 127,-10"/>
<text text-anchor="start" x="150.7251" y="-15.4" font-family="sans-serif" font-size="14.00" fill="#000000"> &#160;Module</text>
<polygon fill="#80b1d3" stroke="transparent" points="213,-10 213,-30 233,-30 233,-10 213,-10"/>
<text text-anchor="start" x="236.7812" y="-15.4" font-family="sans-serif" font-size="14.00" fill="#000000"> &#160;Bootstrap</text>
<polygon fill="#fdb462" stroke="transparent" points="310,-10 310,-30 330,-30 330,-10 310,-10"/>
<text text-anchor="start" x="333.6732" y="-15.4" font-family="sans-serif" font-size="14.00" fill="#000000"> &#160;Providers</text>
<polygon fill="#fb8072" stroke="transparent" points="406,-10 406,-30 426,-30 426,-10 406,-10"/>
<text text-anchor="start" x="429.7258" y="-15.4" font-family="sans-serif" font-size="14.00" fill="#000000"> &#160;Exports</text>
<g id="clust1" class="cluster">
<title>cluster_TechLinesPageModule</title>
<polygon fill="none" stroke="#000000" stroke-dasharray="1,5" points="73,-70 73,-268 423,-268 423,-70 73,-70"/>
</g>
<g id="clust2" class="cluster">
<title>cluster_TechLinesPageModule_declarations</title>
<polygon fill="none" stroke="#000000" points="231,-78 231,-130 415,-130 415,-78 231,-78"/>
</g>
<g id="clust4" class="cluster">
<title>cluster_TechLinesPageModule_imports</title>
<polygon fill="none" stroke="#000000" points="81,-78 81,-130 223,-130 223,-78 81,-78"/>
</g>
<g id="clust5" class="cluster">
<title>cluster_TechLinesPageModule_exports</title>
<polygon fill="none" stroke="#000000" points="154,-208 154,-260 342,-260 342,-208 154,-208"/>
</g>
<!-- TechLinesPageComponent -->
<g id="node1" class="node">
<title>TechLinesPageComponent</title>
<polygon fill="#ffffb3" stroke="#000000" points="406.6288,-122 239.3712,-122 239.3712,-86 406.6288,-86 406.6288,-122"/>
<text text-anchor="middle" x="323" y="-99.8" font-family="Times,serif" font-size="14.00" fill="#000000">TechLinesPageComponent</text>
</g>
<!-- TechLinesPageModule -->
<g id="node2" class="node">
<title>TechLinesPageModule</title>
<polygon fill="#8dd3c7" stroke="#000000" points="320.8459,-187 317.8459,-191 296.8459,-191 293.8459,-187 175.1541,-187 175.1541,-151 320.8459,-151 320.8459,-187"/>
<text text-anchor="middle" x="248" y="-164.8" font-family="Times,serif" font-size="14.00" fill="#000000">TechLinesPageModule</text>
</g>
<!-- TechLinesPageComponent&#45;&gt;TechLinesPageModule -->
<g id="edge1" class="edge">
<title>TechLinesPageComponent&#45;&gt;TechLinesPageModule</title>
<path fill="none" stroke="#000000" d="M280.0544,-122.1061C280.0544,-122.1061 280.0544,-140.991 280.0544,-140.991"/>
<polygon fill="#000000" stroke="#000000" points="276.5544,-140.9909 280.0544,-150.991 283.5544,-140.991 276.5544,-140.9909"/>
</g>
<!-- TechLinesPageComponent  -->
<g id="node4" class="node">
<title>TechLinesPageComponent </title>
<polygon fill="#fb8072" stroke="#000000" points="333.6284,-252 162.3716,-252 162.3716,-216 333.6284,-216 333.6284,-252"/>
<text text-anchor="middle" x="248" y="-229.8" font-family="Times,serif" font-size="14.00" fill="#000000">TechLinesPageComponent </text>
</g>
<!-- TechLinesPageModule&#45;&gt;TechLinesPageComponent  -->
<g id="edge3" class="edge">
<title>TechLinesPageModule&#45;&gt;TechLinesPageComponent </title>
<path fill="none" stroke="#000000" stroke-dasharray="5,2" d="M248,-187.1061C248,-187.1061 248,-205.991 248,-205.991"/>
<polygon fill="#000000" stroke="#000000" points="244.5001,-205.9909 248,-215.991 251.5001,-205.991 244.5001,-205.9909"/>
</g>
<!-- PageLayoutModule -->
<g id="node3" class="node">
<title>PageLayoutModule</title>
<polygon fill="#8dd3c7" stroke="#000000" points="215.4201,-122 212.4201,-126 191.4201,-126 188.4201,-122 88.5799,-122 88.5799,-86 215.4201,-86 215.4201,-122"/>
<text text-anchor="middle" x="152" y="-99.8" font-family="Times,serif" font-size="14.00" fill="#000000">PageLayoutModule</text>
</g>
<!-- PageLayoutModule&#45;&gt;TechLinesPageModule -->
<g id="edge2" class="edge">
<title>PageLayoutModule&#45;&gt;TechLinesPageModule</title>
<path fill="none" stroke="#000000" d="M195.1434,-122.1061C195.1434,-122.1061 195.1434,-140.991 195.1434,-140.991"/>
<polygon fill="#000000" stroke="#000000" points="191.6435,-140.9909 195.1434,-150.991 198.6435,-140.991 191.6435,-140.9909"/>
</g>
</g>
</svg>
