<?xml version="1.0" encoding="UTF-8" standalone="no"?>
<!DOCTYPE svg PUBLIC "-//W3C//DTD SVG 1.1//EN"
 "http://www.w3.org/Graphics/SVG/1.1/DTD/svg11.dtd">
<!-- Generated by graphviz version 2.40.1 (20161225.0304)
 -->
<!-- Title: dependencies Pages: 1 -->
<svg width="504pt" height="284pt"
 viewBox="0.00 0.00 504.00 284.00" xmlns="http://www.w3.org/2000/svg" xmlns:xlink="http://www.w3.org/1999/xlink">
<g id="graph0" class="graph" transform="scale(1 1) rotate(0) translate(4 280)">
<title>dependencies</title>
<polygon fill="#ffffff" stroke="transparent" points="-4,4 -4,-280 500,-280 500,4 -4,4"/>
<text text-anchor="start" x="227.0091" y="-42.4" font-family="sans-serif" font-weight="bold" font-size="14.00" fill="#000000">Legend</text>
<polygon fill="#ffffb3" stroke="transparent" points="14,-10 14,-30 34,-30 34,-10 14,-10"/>
<text text-anchor="start" x="37.629" y="-15.4" font-family="sans-serif" font-size="14.00" fill="#000000"> &#160;Declarations</text>
<polygon fill="#8dd3c7" stroke="transparent" points="127,-10 127,-30 147,-30 147,-10 127,-10"/>
<text text-anchor="start" x="150.7251" y="-15.4" font-family="sans-serif" font-size="14.00" fill="#000000"> &#160;Module</text>
<polygon fill="#80b1d3" stroke="transparent" points="213,-10 213,-30 233,-30 233,-10 213,-10"/>
<text text-anchor="start" x="236.7812" y="-15.4" font-family="sans-serif" font-size="14.00" fill="#000000"> &#160;Bootstrap</text>
<polygon fill="#fdb462" stroke="transparent" points="310,-10 310,-30 330,-30 330,-10 310,-10"/>
<text text-anchor="start" x="333.6732" y="-15.4" font-family="sans-serif" font-size="14.00" fill="#000000"> &#160;Providers</text>
<polygon fill="#fb8072" stroke="transparent" points="406,-10 406,-30 426,-30 426,-10 406,-10"/>
<text text-anchor="start" x="429.7258" y="-15.4" font-family="sans-serif" font-size="14.00" fill="#000000"> &#160;Exports</text>
<g id="clust1" class="cluster">
<title>cluster_SectionWithCarousel2Module</title>
<polygon fill="none" stroke="#000000" stroke-dasharray="1,5" points="36,-70 36,-268 460,-268 460,-70 36,-70"/>
</g>
<g id="clust2" class="cluster">
<title>cluster_SectionWithCarousel2Module_declarations</title>
<polygon fill="none" stroke="#000000" points="228,-78 228,-130 452,-130 452,-78 228,-78"/>
</g>
<g id="clust4" class="cluster">
<title>cluster_SectionWithCarousel2Module_imports</title>
<polygon fill="none" stroke="#000000" points="44,-78 44,-130 220,-130 220,-78 44,-78"/>
</g>
<g id="clust5" class="cluster">
<title>cluster_SectionWithCarousel2Module_exports</title>
<polygon fill="none" stroke="#000000" points="134,-208 134,-260 362,-260 362,-208 134,-208"/>
</g>
<!-- SectionWithCarousel2Component -->
<g id="node1" class="node">
<title>SectionWithCarousel2Component</title>
<polygon fill="#ffffb3" stroke="#000000" points="444.0828,-122 235.9172,-122 235.9172,-86 444.0828,-86 444.0828,-122"/>
<text text-anchor="middle" x="340" y="-99.8" font-family="Times,serif" font-size="14.00" fill="#000000">SectionWithCarousel2Component</text>
</g>
<!-- SectionWithCarousel2Module -->
<g id="node2" class="node">
<title>SectionWithCarousel2Module</title>
<polygon fill="#8dd3c7" stroke="#000000" points="341.3004,-187 338.3004,-191 317.3004,-191 314.3004,-187 154.6996,-187 154.6996,-151 341.3004,-151 341.3004,-187"/>
<text text-anchor="middle" x="248" y="-164.8" font-family="Times,serif" font-size="14.00" fill="#000000">SectionWithCarousel2Module</text>
</g>
<!-- SectionWithCarousel2Component&#45;&gt;SectionWithCarousel2Module -->
<g id="edge1" class="edge">
<title>SectionWithCarousel2Component&#45;&gt;SectionWithCarousel2Module</title>
<path fill="none" stroke="#000000" d="M288.5544,-122.1061C288.5544,-122.1061 288.5544,-140.991 288.5544,-140.991"/>
<polygon fill="#000000" stroke="#000000" points="285.0544,-140.9909 288.5544,-150.991 292.0544,-140.991 285.0544,-140.9909"/>
</g>
<!-- SectionWithCarousel2Component  -->
<g id="node4" class="node">
<title>SectionWithCarousel2Component </title>
<polygon fill="#fb8072" stroke="#000000" points="353.5832,-252 142.4168,-252 142.4168,-216 353.5832,-216 353.5832,-252"/>
<text text-anchor="middle" x="248" y="-229.8" font-family="Times,serif" font-size="14.00" fill="#000000">SectionWithCarousel2Component </text>
</g>
<!-- SectionWithCarousel2Module&#45;&gt;SectionWithCarousel2Component  -->
<g id="edge3" class="edge">
<title>SectionWithCarousel2Module&#45;&gt;SectionWithCarousel2Component </title>
<path fill="none" stroke="#000000" stroke-dasharray="5,2" d="M248,-187.1061C248,-187.1061 248,-205.991 248,-205.991"/>
<polygon fill="#000000" stroke="#000000" points="244.5001,-205.9909 248,-215.991 251.5001,-205.991 244.5001,-205.9909"/>
</g>
<!-- CarouselWithTileModule -->
<g id="node3" class="node">
<title>CarouselWithTileModule</title>
<polygon fill="#8dd3c7" stroke="#000000" points="211.8557,-122 208.8557,-126 187.8557,-126 184.8557,-122 52.1443,-122 52.1443,-86 211.8557,-86 211.8557,-122"/>
<text text-anchor="middle" x="132" y="-99.8" font-family="Times,serif" font-size="14.00" fill="#000000">CarouselWithTileModule</text>
</g>
<!-- CarouselWithTileModule&#45;&gt;SectionWithCarousel2Module -->
<g id="edge2" class="edge">
<title>CarouselWithTileModule&#45;&gt;SectionWithCarousel2Module</title>
<path fill="none" stroke="#000000" d="M183.3889,-122.1061C183.3889,-122.1061 183.3889,-140.991 183.3889,-140.991"/>
<polygon fill="#000000" stroke="#000000" points="179.8889,-140.9909 183.3889,-150.991 186.8889,-140.991 179.8889,-140.9909"/>
</g>
</g>
</svg>
