<?xml version="1.0" encoding="UTF-8" standalone="no"?>
<!DOCTYPE svg PUBLIC "-//W3C//DTD SVG 1.1//EN"
 "http://www.w3.org/Graphics/SVG/1.1/DTD/svg11.dtd">
<!-- Generated by graphviz version 2.40.1 (20161225.0304)
 -->
<!-- Title: dependencies Pages: 1 -->
<svg width="504pt" height="284pt"
 viewBox="0.00 0.00 504.00 284.00" xmlns="http://www.w3.org/2000/svg" xmlns:xlink="http://www.w3.org/1999/xlink">
<g id="graph0" class="graph" transform="scale(1 1) rotate(0) translate(4 280)">
<title>dependencies</title>
<polygon fill="#ffffff" stroke="transparent" points="-4,4 -4,-280 500,-280 500,4 -4,4"/>
<text text-anchor="start" x="227.0091" y="-42.4" font-family="sans-serif" font-weight="bold" font-size="14.00" fill="#000000">Legend</text>
<polygon fill="#ffffb3" stroke="transparent" points="14,-10 14,-30 34,-30 34,-10 14,-10"/>
<text text-anchor="start" x="37.629" y="-15.4" font-family="sans-serif" font-size="14.00" fill="#000000"> &#160;Declarations</text>
<polygon fill="#8dd3c7" stroke="transparent" points="127,-10 127,-30 147,-30 147,-10 127,-10"/>
<text text-anchor="start" x="150.7251" y="-15.4" font-family="sans-serif" font-size="14.00" fill="#000000"> &#160;Module</text>
<polygon fill="#80b1d3" stroke="transparent" points="213,-10 213,-30 233,-30 233,-10 213,-10"/>
<text text-anchor="start" x="236.7812" y="-15.4" font-family="sans-serif" font-size="14.00" fill="#000000"> &#160;Bootstrap</text>
<polygon fill="#fdb462" stroke="transparent" points="310,-10 310,-30 330,-30 330,-10 310,-10"/>
<text text-anchor="start" x="333.6732" y="-15.4" font-family="sans-serif" font-size="14.00" fill="#000000"> &#160;Providers</text>
<polygon fill="#fb8072" stroke="transparent" points="406,-10 406,-30 426,-30 426,-10 406,-10"/>
<text text-anchor="start" x="429.7258" y="-15.4" font-family="sans-serif" font-size="14.00" fill="#000000"> &#160;Exports</text>
<g id="clust1" class="cluster">
<title>cluster_SectionWithCarousel1Module</title>
<polygon fill="none" stroke="#000000" stroke-dasharray="1,5" points="35,-70 35,-268 461,-268 461,-70 35,-70"/>
</g>
<g id="clust2" class="cluster">
<title>cluster_SectionWithCarousel1Module_declarations</title>
<polygon fill="none" stroke="#000000" points="229,-78 229,-130 453,-130 453,-78 229,-78"/>
</g>
<g id="clust4" class="cluster">
<title>cluster_SectionWithCarousel1Module_imports</title>
<polygon fill="none" stroke="#000000" points="43,-78 43,-130 221,-130 221,-78 43,-78"/>
</g>
<g id="clust5" class="cluster">
<title>cluster_SectionWithCarousel1Module_exports</title>
<polygon fill="none" stroke="#000000" points="134,-208 134,-260 362,-260 362,-208 134,-208"/>
</g>
<!-- SectionWithCarousel1Component -->
<g id="node1" class="node">
<title>SectionWithCarousel1Component</title>
<polygon fill="#ffffb3" stroke="#000000" points="445.0828,-122 236.9172,-122 236.9172,-86 445.0828,-86 445.0828,-122"/>
<text text-anchor="middle" x="341" y="-99.8" font-family="Times,serif" font-size="14.00" fill="#000000">SectionWithCarousel1Component</text>
</g>
<!-- SectionWithCarousel1Module -->
<g id="node2" class="node">
<title>SectionWithCarousel1Module</title>
<polygon fill="#8dd3c7" stroke="#000000" points="341.3004,-187 338.3004,-191 317.3004,-191 314.3004,-187 154.6996,-187 154.6996,-151 341.3004,-151 341.3004,-187"/>
<text text-anchor="middle" x="248" y="-164.8" font-family="Times,serif" font-size="14.00" fill="#000000">SectionWithCarousel1Module</text>
</g>
<!-- SectionWithCarousel1Component&#45;&gt;SectionWithCarousel1Module -->
<g id="edge1" class="edge">
<title>SectionWithCarousel1Component&#45;&gt;SectionWithCarousel1Module</title>
<path fill="none" stroke="#000000" d="M289.0544,-122.1061C289.0544,-122.1061 289.0544,-140.991 289.0544,-140.991"/>
<polygon fill="#000000" stroke="#000000" points="285.5544,-140.9909 289.0544,-150.991 292.5544,-140.991 285.5544,-140.9909"/>
</g>
<!-- SectionWithCarousel1Component  -->
<g id="node4" class="node">
<title>SectionWithCarousel1Component </title>
<polygon fill="#fb8072" stroke="#000000" points="353.5832,-252 142.4168,-252 142.4168,-216 353.5832,-216 353.5832,-252"/>
<text text-anchor="middle" x="248" y="-229.8" font-family="Times,serif" font-size="14.00" fill="#000000">SectionWithCarousel1Component </text>
</g>
<!-- SectionWithCarousel1Module&#45;&gt;SectionWithCarousel1Component  -->
<g id="edge3" class="edge">
<title>SectionWithCarousel1Module&#45;&gt;SectionWithCarousel1Component </title>
<path fill="none" stroke="#000000" stroke-dasharray="5,2" d="M248,-187.1061C248,-187.1061 248,-205.991 248,-205.991"/>
<polygon fill="#000000" stroke="#000000" points="244.5001,-205.9909 248,-215.991 251.5001,-205.991 244.5001,-205.9909"/>
</g>
<!-- CarouselWithItemModule -->
<g id="node3" class="node">
<title>CarouselWithItemModule</title>
<polygon fill="#8dd3c7" stroke="#000000" points="213.4636,-122 210.4636,-126 189.4636,-126 186.4636,-122 50.5364,-122 50.5364,-86 213.4636,-86 213.4636,-122"/>
<text text-anchor="middle" x="132" y="-99.8" font-family="Times,serif" font-size="14.00" fill="#000000">CarouselWithItemModule</text>
</g>
<!-- CarouselWithItemModule&#45;&gt;SectionWithCarousel1Module -->
<g id="edge2" class="edge">
<title>CarouselWithItemModule&#45;&gt;SectionWithCarousel1Module</title>
<path fill="none" stroke="#000000" d="M184.1659,-122.1061C184.1659,-122.1061 184.1659,-140.991 184.1659,-140.991"/>
<polygon fill="#000000" stroke="#000000" points="180.6659,-140.9909 184.1659,-150.991 187.6659,-140.991 180.6659,-140.9909"/>
</g>
</g>
</svg>
