<?xml version="1.0" encoding="UTF-8" standalone="no"?>
<!DOCTYPE svg PUBLIC "-//W3C//DTD SVG 1.1//EN"
 "http://www.w3.org/Graphics/SVG/1.1/DTD/svg11.dtd">
<!-- Generated by graphviz version 2.40.1 (20161225.0304)
 -->
<!-- Title: dependencies Pages: 1 -->
<svg width="504pt" height="284pt"
 viewBox="0.00 0.00 504.00 284.00" xmlns="http://www.w3.org/2000/svg" xmlns:xlink="http://www.w3.org/1999/xlink">
<g id="graph0" class="graph" transform="scale(1 1) rotate(0) translate(4 280)">
<title>dependencies</title>
<polygon fill="#ffffff" stroke="transparent" points="-4,4 -4,-280 500,-280 500,4 -4,4"/>
<text text-anchor="start" x="227.0091" y="-42.4" font-family="sans-serif" font-weight="bold" font-size="14.00" fill="#000000">Legend</text>
<polygon fill="#ffffb3" stroke="transparent" points="14,-10 14,-30 34,-30 34,-10 14,-10"/>
<text text-anchor="start" x="37.629" y="-15.4" font-family="sans-serif" font-size="14.00" fill="#000000"> &#160;Declarations</text>
<polygon fill="#8dd3c7" stroke="transparent" points="127,-10 127,-30 147,-30 147,-10 127,-10"/>
<text text-anchor="start" x="150.7251" y="-15.4" font-family="sans-serif" font-size="14.00" fill="#000000"> &#160;Module</text>
<polygon fill="#80b1d3" stroke="transparent" points="213,-10 213,-30 233,-30 233,-10 213,-10"/>
<text text-anchor="start" x="236.7812" y="-15.4" font-family="sans-serif" font-size="14.00" fill="#000000"> &#160;Bootstrap</text>
<polygon fill="#fdb462" stroke="transparent" points="310,-10 310,-30 330,-30 330,-10 310,-10"/>
<text text-anchor="start" x="333.6732" y="-15.4" font-family="sans-serif" font-size="14.00" fill="#000000"> &#160;Providers</text>
<polygon fill="#fb8072" stroke="transparent" points="406,-10 406,-30 426,-30 426,-10 406,-10"/>
<text text-anchor="start" x="429.7258" y="-15.4" font-family="sans-serif" font-size="14.00" fill="#000000"> &#160;Exports</text>
<g id="clust1" class="cluster">
<title>cluster_NavbarModule</title>
<polygon fill="none" stroke="#000000" stroke-dasharray="1,5" points="76.5,-70 76.5,-268 419.5,-268 419.5,-70 76.5,-70"/>
</g>
<g id="clust2" class="cluster">
<title>cluster_NavbarModule_declarations</title>
<polygon fill="none" stroke="#000000" points="84.5,-78 84.5,-130 411.5,-130 411.5,-78 84.5,-78"/>
</g>
<g id="clust6" class="cluster">
<title>cluster_NavbarModule_exports</title>
<polygon fill="none" stroke="#000000" points="187.5,-208 187.5,-260 329.5,-260 329.5,-208 187.5,-208"/>
</g>
<!-- NavbarComponent -->
<g id="node1" class="node">
<title>NavbarComponent</title>
<polygon fill="#ffffb3" stroke="#000000" points="403.5297,-122 281.4703,-122 281.4703,-86 403.5297,-86 403.5297,-122"/>
<text text-anchor="middle" x="342.5" y="-99.8" font-family="Times,serif" font-size="14.00" fill="#000000">NavbarComponent</text>
</g>
<!-- NavbarModule -->
<g id="node3" class="node">
<title>NavbarModule</title>
<polygon fill="#8dd3c7" stroke="#000000" points="308.7465,-187 305.7465,-191 284.7465,-191 281.7465,-187 208.2535,-187 208.2535,-151 308.7465,-151 308.7465,-187"/>
<text text-anchor="middle" x="258.5" y="-164.8" font-family="Times,serif" font-size="14.00" fill="#000000">NavbarModule</text>
</g>
<!-- NavbarComponent&#45;&gt;NavbarModule -->
<g id="edge1" class="edge">
<title>NavbarComponent&#45;&gt;NavbarModule</title>
<path fill="none" stroke="#000000" d="M295.0544,-122.1061C295.0544,-122.1061 295.0544,-140.991 295.0544,-140.991"/>
<polygon fill="#000000" stroke="#000000" points="291.5544,-140.9909 295.0544,-150.991 298.5544,-140.991 291.5544,-140.9909"/>
</g>
<!-- SelectLanguageComponent -->
<g id="node2" class="node">
<title>SelectLanguageComponent</title>
<polygon fill="#ffffb3" stroke="#000000" points="262.7366,-122 92.2634,-122 92.2634,-86 262.7366,-86 262.7366,-122"/>
<text text-anchor="middle" x="177.5" y="-99.8" font-family="Times,serif" font-size="14.00" fill="#000000">SelectLanguageComponent</text>
</g>
<!-- SelectLanguageComponent&#45;&gt;NavbarModule -->
<g id="edge2" class="edge">
<title>SelectLanguageComponent&#45;&gt;NavbarModule</title>
<path fill="none" stroke="#000000" d="M235.4976,-122.1061C235.4976,-122.1061 235.4976,-140.991 235.4976,-140.991"/>
<polygon fill="#000000" stroke="#000000" points="231.9976,-140.9909 235.4976,-150.991 238.9976,-140.991 231.9976,-140.9909"/>
</g>
<!-- NavbarComponent  -->
<g id="node4" class="node">
<title>NavbarComponent </title>
<polygon fill="#fb8072" stroke="#000000" points="321.5288,-252 195.4712,-252 195.4712,-216 321.5288,-216 321.5288,-252"/>
<text text-anchor="middle" x="258.5" y="-229.8" font-family="Times,serif" font-size="14.00" fill="#000000">NavbarComponent </text>
</g>
<!-- NavbarModule&#45;&gt;NavbarComponent  -->
<g id="edge3" class="edge">
<title>NavbarModule&#45;&gt;NavbarComponent </title>
<path fill="none" stroke="#000000" stroke-dasharray="5,2" d="M258.5,-187.1061C258.5,-187.1061 258.5,-205.991 258.5,-205.991"/>
<polygon fill="#000000" stroke="#000000" points="255.0001,-205.9909 258.5,-215.991 262.0001,-205.991 255.0001,-205.9909"/>
</g>
</g>
</svg>
