<?xml version="1.0" encoding="UTF-8" standalone="no"?>
<!DOCTYPE svg PUBLIC "-//W3C//DTD SVG 1.1//EN"
 "http://www.w3.org/Graphics/SVG/1.1/DTD/svg11.dtd">
<!-- Generated by graphviz version 2.40.1 (20161225.0304)
 -->
<!-- Title: dependencies Pages: 1 -->
<svg width="522pt" height="284pt"
 viewBox="0.00 0.00 522.00 284.00" xmlns="http://www.w3.org/2000/svg" xmlns:xlink="http://www.w3.org/1999/xlink">
<g id="graph0" class="graph" transform="scale(1 1) rotate(0) translate(4 280)">
<title>dependencies</title>
<polygon fill="#ffffff" stroke="transparent" points="-4,4 -4,-280 518,-280 518,4 -4,4"/>
<text text-anchor="start" x="236.0091" y="-42.4" font-family="sans-serif" font-weight="bold" font-size="14.00" fill="#000000">Legend</text>
<polygon fill="#ffffb3" stroke="transparent" points="23,-10 23,-30 43,-30 43,-10 23,-10"/>
<text text-anchor="start" x="46.629" y="-15.4" font-family="sans-serif" font-size="14.00" fill="#000000"> &#160;Declarations</text>
<polygon fill="#8dd3c7" stroke="transparent" points="136,-10 136,-30 156,-30 156,-10 136,-10"/>
<text text-anchor="start" x="159.7251" y="-15.4" font-family="sans-serif" font-size="14.00" fill="#000000"> &#160;Module</text>
<polygon fill="#80b1d3" stroke="transparent" points="222,-10 222,-30 242,-30 242,-10 222,-10"/>
<text text-anchor="start" x="245.7812" y="-15.4" font-family="sans-serif" font-size="14.00" fill="#000000"> &#160;Bootstrap</text>
<polygon fill="#fdb462" stroke="transparent" points="319,-10 319,-30 339,-30 339,-10 319,-10"/>
<text text-anchor="start" x="342.6732" y="-15.4" font-family="sans-serif" font-size="14.00" fill="#000000"> &#160;Providers</text>
<polygon fill="#fb8072" stroke="transparent" points="415,-10 415,-30 435,-30 435,-10 415,-10"/>
<text text-anchor="start" x="438.7258" y="-15.4" font-family="sans-serif" font-size="14.00" fill="#000000"> &#160;Exports</text>
<g id="clust1" class="cluster">
<title>cluster_CarouselMediaModule</title>
<polygon fill="none" stroke="#000000" stroke-dasharray="1,5" points="8,-70 8,-268 506,-268 506,-70 8,-70"/>
</g>
<g id="clust2" class="cluster">
<title>cluster_CarouselMediaModule_declarations</title>
<polygon fill="none" stroke="#000000" points="316,-78 316,-130 498,-130 498,-78 316,-78"/>
</g>
<g id="clust4" class="cluster">
<title>cluster_CarouselMediaModule_imports</title>
<polygon fill="none" stroke="#000000" points="16,-78 16,-130 308,-130 308,-78 16,-78"/>
</g>
<g id="clust5" class="cluster">
<title>cluster_CarouselMediaModule_exports</title>
<polygon fill="none" stroke="#000000" points="149,-208 149,-260 335,-260 335,-208 149,-208"/>
</g>
<!-- CarouselMediaComponent -->
<g id="node1" class="node">
<title>CarouselMediaComponent</title>
<polygon fill="#ffffb3" stroke="#000000" points="490.3585,-122 323.6415,-122 323.6415,-86 490.3585,-86 490.3585,-122"/>
<text text-anchor="middle" x="407" y="-99.8" font-family="Times,serif" font-size="14.00" fill="#000000">CarouselMediaComponent</text>
</g>
<!-- CarouselMediaModule -->
<g id="node2" class="node">
<title>CarouselMediaModule</title>
<polygon fill="#8dd3c7" stroke="#000000" points="314.5758,-187 311.5758,-191 290.5758,-191 287.5758,-187 169.4242,-187 169.4242,-151 314.5758,-151 314.5758,-187"/>
<text text-anchor="middle" x="242" y="-164.8" font-family="Times,serif" font-size="14.00" fill="#000000">CarouselMediaModule</text>
</g>
<!-- CarouselMediaComponent&#45;&gt;CarouselMediaModule -->
<g id="edge1" class="edge">
<title>CarouselMediaComponent&#45;&gt;CarouselMediaModule</title>
<path fill="none" stroke="#000000" d="M323.6394,-104C313.7882,-104 307.1515,-104 307.1515,-104 307.1515,-104 307.1515,-140.8939 307.1515,-140.8939"/>
<polygon fill="#000000" stroke="#000000" points="303.6516,-140.8938 307.1515,-150.8939 310.6516,-140.8939 303.6516,-140.8938"/>
</g>
<!-- CarouselMediaComponent  -->
<g id="node5" class="node">
<title>CarouselMediaComponent </title>
<polygon fill="#fb8072" stroke="#000000" points="327.3588,-252 156.6412,-252 156.6412,-216 327.3588,-216 327.3588,-252"/>
<text text-anchor="middle" x="242" y="-229.8" font-family="Times,serif" font-size="14.00" fill="#000000">CarouselMediaComponent </text>
</g>
<!-- CarouselMediaModule&#45;&gt;CarouselMediaComponent  -->
<g id="edge4" class="edge">
<title>CarouselMediaModule&#45;&gt;CarouselMediaComponent </title>
<path fill="none" stroke="#000000" stroke-dasharray="5,2" d="M242,-187.1061C242,-187.1061 242,-205.991 242,-205.991"/>
<polygon fill="#000000" stroke="#000000" points="238.5001,-205.9909 242,-215.991 245.5001,-205.991 238.5001,-205.9909"/>
</g>
<!-- Image360Module -->
<g id="node3" class="node">
<title>Image360Module</title>
<polygon fill="#8dd3c7" stroke="#000000" points="299.5312,-122 296.5312,-126 275.5312,-126 272.5312,-122 184.4688,-122 184.4688,-86 299.5312,-86 299.5312,-122"/>
<text text-anchor="middle" x="242" y="-99.8" font-family="Times,serif" font-size="14.00" fill="#000000">Image360Module</text>
</g>
<!-- Image360Module&#45;&gt;CarouselMediaModule -->
<g id="edge2" class="edge">
<title>Image360Module&#45;&gt;CarouselMediaModule</title>
<path fill="none" stroke="#000000" d="M242,-122.1061C242,-122.1061 242,-140.991 242,-140.991"/>
<polygon fill="#000000" stroke="#000000" points="238.5001,-140.9909 242,-150.991 245.5001,-140.991 238.5001,-140.9909"/>
</g>
<!-- YoutubeVideoModule -->
<g id="node4" class="node">
<title>YoutubeVideoModule</title>
<polygon fill="#8dd3c7" stroke="#000000" points="165.9734,-122 162.9734,-126 141.9734,-126 138.9734,-122 24.0266,-122 24.0266,-86 165.9734,-86 165.9734,-122"/>
<text text-anchor="middle" x="95" y="-99.8" font-family="Times,serif" font-size="14.00" fill="#000000">YoutubeVideoModule</text>
</g>
<!-- YoutubeVideoModule&#45;&gt;CarouselMediaModule -->
<g id="edge3" class="edge">
<title>YoutubeVideoModule&#45;&gt;CarouselMediaModule</title>
<path fill="none" stroke="#000000" d="M161.4038,-122.1061C161.4038,-141.3391 161.4038,-169 161.4038,-169 161.4038,-169 162.206,-169 162.206,-169"/>
<polygon fill="#000000" stroke="#000000" points="159.4263,-172.5001 169.4263,-169 159.4262,-165.5001 159.4263,-172.5001"/>
</g>
</g>
</svg>
