<?xml version="1.0" encoding="UTF-8" standalone="no"?>
<!DOCTYPE svg PUBLIC "-//W3C//DTD SVG 1.1//EN"
 "http://www.w3.org/Graphics/SVG/1.1/DTD/svg11.dtd">
<!-- Generated by graphviz version 2.40.1 (20161225.0304)
 -->
<!-- Title: dependencies Pages: 1 -->
<svg width="3414pt" height="211pt"
 viewBox="0.00 0.00 3414.00 211.00" xmlns="http://www.w3.org/2000/svg" xmlns:xlink="http://www.w3.org/1999/xlink">
<g id="graph0" class="graph" transform="scale(1 1) rotate(0) translate(4 207)">
<title>dependencies</title>
<polygon fill="#ffffff" stroke="transparent" points="-4,4 -4,-207 3410,-207 3410,4 -4,4"/>
<text text-anchor="start" x="1682.0091" y="-42.4" font-family="sans-serif" font-weight="bold" font-size="14.00" fill="#000000">Legend</text>
<polygon fill="#ffffb3" stroke="transparent" points="1469,-10 1469,-30 1489,-30 1489,-10 1469,-10"/>
<text text-anchor="start" x="1492.629" y="-15.4" font-family="sans-serif" font-size="14.00" fill="#000000"> &#160;Declarations</text>
<polygon fill="#8dd3c7" stroke="transparent" points="1582,-10 1582,-30 1602,-30 1602,-10 1582,-10"/>
<text text-anchor="start" x="1605.7251" y="-15.4" font-family="sans-serif" font-size="14.00" fill="#000000"> &#160;Module</text>
<polygon fill="#80b1d3" stroke="transparent" points="1668,-10 1668,-30 1688,-30 1688,-10 1668,-10"/>
<text text-anchor="start" x="1691.7812" y="-15.4" font-family="sans-serif" font-size="14.00" fill="#000000"> &#160;Bootstrap</text>
<polygon fill="#fdb462" stroke="transparent" points="1765,-10 1765,-30 1785,-30 1785,-10 1765,-10"/>
<text text-anchor="start" x="1788.6732" y="-15.4" font-family="sans-serif" font-size="14.00" fill="#000000"> &#160;Providers</text>
<polygon fill="#fb8072" stroke="transparent" points="1861,-10 1861,-30 1881,-30 1881,-10 1861,-10"/>
<text text-anchor="start" x="1884.7258" y="-15.4" font-family="sans-serif" font-size="14.00" fill="#000000"> &#160;Exports</text>
<g id="clust1" class="cluster">
<title>cluster_CatoModule</title>
<polygon fill="none" stroke="#000000" stroke-dasharray="1,5" points="8,-70 8,-195 3398,-195 3398,-70 8,-70"/>
</g>
<g id="clust2" class="cluster">
<title>cluster_CatoModule_declarations</title>
<polygon fill="none" stroke="#000000" points="3266,-78 3266,-130 3390,-130 3390,-78 3266,-78"/>
</g>
<g id="clust4" class="cluster">
<title>cluster_CatoModule_imports</title>
<polygon fill="none" stroke="#000000" points="16,-78 16,-130 3258,-130 3258,-78 16,-78"/>
</g>
<!-- CatoComponent -->
<g id="node1" class="node">
<title>CatoComponent</title>
<polygon fill="#ffffb3" stroke="#000000" points="3381.7744,-122 3274.2256,-122 3274.2256,-86 3381.7744,-86 3381.7744,-122"/>
<text text-anchor="middle" x="3328" y="-99.8" font-family="Times,serif" font-size="14.00" fill="#000000">CatoComponent</text>
</g>
<!-- CatoModule -->
<g id="node2" class="node">
<title>CatoModule</title>
<polygon fill="#8dd3c7" stroke="#000000" points="1929.9916,-187 1926.9916,-191 1905.9916,-191 1902.9916,-187 1844.0084,-187 1844.0084,-151 1929.9916,-151 1929.9916,-187"/>
<text text-anchor="middle" x="1887" y="-164.8" font-family="Times,serif" font-size="14.00" fill="#000000">CatoModule</text>
</g>
<!-- CatoComponent&#45;&gt;CatoModule -->
<g id="edge1" class="edge">
<title>CatoComponent&#45;&gt;CatoModule</title>
<path fill="none" stroke="#000000" d="M3328,-122.1532C3328,-145.7566 3328,-184 3328,-184 3328,-184 1940.1263,-184 1940.1263,-184"/>
<polygon fill="#000000" stroke="#000000" points="1940.1263,-180.5001 1930.1263,-184 1940.1262,-187.5001 1940.1263,-180.5001"/>
</g>
<!-- CarouselMediaModule -->
<g id="node3" class="node">
<title>CarouselMediaModule</title>
<polygon fill="#8dd3c7" stroke="#000000" points="3249.5758,-122 3246.5758,-126 3225.5758,-126 3222.5758,-122 3104.4242,-122 3104.4242,-86 3249.5758,-86 3249.5758,-122"/>
<text text-anchor="middle" x="3177" y="-99.8" font-family="Times,serif" font-size="14.00" fill="#000000">CarouselMediaModule</text>
</g>
<!-- CarouselMediaModule&#45;&gt;CatoModule -->
<g id="edge2" class="edge">
<title>CarouselMediaModule&#45;&gt;CatoModule</title>
<path fill="none" stroke="#000000" d="M3177,-122.0109C3177,-144.4852 3177,-180 3177,-180 3177,-180 1940.2895,-180 1940.2895,-180"/>
<polygon fill="#000000" stroke="#000000" points="1940.2895,-176.5001 1930.2895,-180 1940.2894,-183.5001 1940.2895,-176.5001"/>
</g>
<!-- CarouselWithItemModule -->
<g id="node4" class="node">
<title>CarouselWithItemModule</title>
<polygon fill="#8dd3c7" stroke="#000000" points="3086.4636,-122 3083.4636,-126 3062.4636,-126 3059.4636,-122 2923.5364,-122 2923.5364,-86 3086.4636,-86 3086.4636,-122"/>
<text text-anchor="middle" x="3005" y="-99.8" font-family="Times,serif" font-size="14.00" fill="#000000">CarouselWithItemModule</text>
</g>
<!-- CarouselWithItemModule&#45;&gt;CatoModule -->
<g id="edge3" class="edge">
<title>CarouselWithItemModule&#45;&gt;CatoModule</title>
<path fill="none" stroke="#000000" d="M3005,-122.0449C3005,-143.6623 3005,-177 3005,-177 3005,-177 1940.1419,-177 1940.1419,-177"/>
<polygon fill="#000000" stroke="#000000" points="1940.1419,-173.5001 1930.1419,-177 1940.1418,-180.5001 1940.1419,-173.5001"/>
</g>
<!-- CarouselWithTileModule -->
<g id="node5" class="node">
<title>CarouselWithTileModule</title>
<polygon fill="#8dd3c7" stroke="#000000" points="2905.8557,-122 2902.8557,-126 2881.8557,-126 2878.8557,-122 2746.1443,-122 2746.1443,-86 2905.8557,-86 2905.8557,-122"/>
<text text-anchor="middle" x="2826" y="-99.8" font-family="Times,serif" font-size="14.00" fill="#000000">CarouselWithTileModule</text>
</g>
<!-- CarouselWithTileModule&#45;&gt;CatoModule -->
<g id="edge4" class="edge">
<title>CarouselWithTileModule&#45;&gt;CatoModule</title>
<path fill="none" stroke="#000000" d="M2826,-122.1289C2826,-142.5724 2826,-173 2826,-173 2826,-173 1940.0963,-173 1940.0963,-173"/>
<polygon fill="#000000" stroke="#000000" points="1940.0963,-169.5001 1930.0963,-173 1940.0963,-176.5001 1940.0963,-169.5001"/>
</g>
<!-- CatoRoutingModule -->
<g id="node6" class="node">
<title>CatoRoutingModule</title>
<polygon fill="#8dd3c7" stroke="#000000" points="2728.6094,-122 2725.6094,-126 2704.6094,-126 2701.6094,-122 2597.3906,-122 2597.3906,-86 2728.6094,-86 2728.6094,-122"/>
<text text-anchor="middle" x="2663" y="-99.8" font-family="Times,serif" font-size="14.00" fill="#000000">CatoRoutingModule</text>
</g>
<!-- CatoRoutingModule&#45;&gt;CatoModule -->
<g id="edge5" class="edge">
<title>CatoRoutingModule&#45;&gt;CatoModule</title>
<path fill="none" stroke="#000000" d="M2663,-122.1061C2663,-141.3391 2663,-169 2663,-169 2663,-169 1940.1048,-169 1940.1048,-169"/>
<polygon fill="#000000" stroke="#000000" points="1940.1048,-165.5001 1930.1048,-169 1940.1048,-172.5001 1940.1048,-165.5001"/>
</g>
<!-- DevelopmentCardModule -->
<g id="node7" class="node">
<title>DevelopmentCardModule</title>
<polygon fill="#8dd3c7" stroke="#000000" points="2579.1839,-122 2576.1839,-126 2555.1839,-126 2552.1839,-122 2416.8161,-122 2416.8161,-86 2579.1839,-86 2579.1839,-122"/>
<text text-anchor="middle" x="2498" y="-99.8" font-family="Times,serif" font-size="14.00" fill="#000000">DevelopmentCardModule</text>
</g>
<!-- DevelopmentCardModule&#45;&gt;CatoModule -->
<g id="edge6" class="edge">
<title>DevelopmentCardModule&#45;&gt;CatoModule</title>
<path fill="none" stroke="#000000" d="M2498,-122.2667C2498,-140.5552 2498,-166 2498,-166 2498,-166 1940.4518,-166 1940.4518,-166"/>
<polygon fill="#000000" stroke="#000000" points="1940.4518,-162.5001 1930.4518,-166 1940.4518,-169.5001 1940.4518,-162.5001"/>
</g>
<!-- HeroModule -->
<g id="node8" class="node">
<title>HeroModule</title>
<polygon fill="#8dd3c7" stroke="#000000" points="2398.5328,-122 2395.5328,-126 2374.5328,-126 2371.5328,-122 2311.4672,-122 2311.4672,-86 2398.5328,-86 2398.5328,-122"/>
<text text-anchor="middle" x="2355" y="-99.8" font-family="Times,serif" font-size="14.00" fill="#000000">HeroModule</text>
</g>
<!-- HeroModule&#45;&gt;CatoModule -->
<g id="edge7" class="edge">
<title>HeroModule&#45;&gt;CatoModule</title>
<path fill="none" stroke="#000000" d="M2355,-122.0336C2355,-139.0597 2355,-162 2355,-162 2355,-162 1940.1895,-162 1940.1895,-162"/>
<polygon fill="#000000" stroke="#000000" points="1940.1895,-158.5001 1930.1895,-162 1940.1894,-165.5001 1940.1895,-158.5001"/>
</g>
<!-- Image360Module -->
<g id="node9" class="node">
<title>Image360Module</title>
<polygon fill="#8dd3c7" stroke="#000000" points="2292.5312,-122 2289.5312,-126 2268.5312,-126 2265.5312,-122 2177.4688,-122 2177.4688,-86 2292.5312,-86 2292.5312,-122"/>
<text text-anchor="middle" x="2235" y="-99.8" font-family="Times,serif" font-size="14.00" fill="#000000">Image360Module</text>
</g>
<!-- Image360Module&#45;&gt;CatoModule -->
<g id="edge8" class="edge">
<title>Image360Module&#45;&gt;CatoModule</title>
<path fill="none" stroke="#000000" d="M2235,-122.0091C2235,-138.0494 2235,-159 2235,-159 2235,-159 1940.0207,-159 1940.0207,-159"/>
<polygon fill="#000000" stroke="#000000" points="1940.0207,-155.5001 1930.0207,-159 1940.0206,-162.5001 1940.0207,-155.5001"/>
</g>
<!-- JoinUsModule -->
<g id="node10" class="node">
<title>JoinUsModule</title>
<polygon fill="#8dd3c7" stroke="#000000" points="2159.4372,-122 2156.4372,-126 2135.4372,-126 2132.4372,-122 2060.5628,-122 2060.5628,-86 2159.4372,-86 2159.4372,-122"/>
<text text-anchor="middle" x="2110" y="-99.8" font-family="Times,serif" font-size="14.00" fill="#000000">JoinUsModule</text>
</g>
<!-- JoinUsModule&#45;&gt;CatoModule -->
<g id="edge9" class="edge">
<title>JoinUsModule&#45;&gt;CatoModule</title>
<path fill="none" stroke="#000000" d="M2110,-122.1243C2110,-136.7832 2110,-155 2110,-155 2110,-155 1939.9966,-155 1939.9966,-155"/>
<polygon fill="#000000" stroke="#000000" points="1939.9967,-151.5001 1929.9966,-155 1939.9966,-158.5001 1939.9967,-151.5001"/>
</g>
<!-- SectionSimple2Module -->
<g id="node11" class="node">
<title>SectionSimple2Module</title>
<polygon fill="#8dd3c7" stroke="#000000" points="2043.212,-122 2040.212,-126 2019.212,-126 2016.212,-122 1894.788,-122 1894.788,-86 2043.212,-86 2043.212,-122"/>
<text text-anchor="middle" x="1969" y="-99.8" font-family="Times,serif" font-size="14.00" fill="#000000">SectionSimple2Module</text>
</g>
<!-- SectionSimple2Module&#45;&gt;CatoModule -->
<g id="edge10" class="edge">
<title>SectionSimple2Module&#45;&gt;CatoModule</title>
<path fill="none" stroke="#000000" d="M1912.445,-122.1061C1912.445,-122.1061 1912.445,-140.991 1912.445,-140.991"/>
<polygon fill="#000000" stroke="#000000" points="1908.945,-140.9909 1912.445,-150.991 1915.945,-140.991 1908.945,-140.9909"/>
</g>
<!-- SectionSimpleModule -->
<g id="node12" class="node">
<title>SectionSimpleModule</title>
<polygon fill="#8dd3c7" stroke="#000000" points="1876.712,-122 1873.712,-126 1852.712,-126 1849.712,-122 1735.288,-122 1735.288,-86 1876.712,-86 1876.712,-122"/>
<text text-anchor="middle" x="1806" y="-99.8" font-family="Times,serif" font-size="14.00" fill="#000000">SectionSimpleModule</text>
</g>
<!-- SectionSimpleModule&#45;&gt;CatoModule -->
<g id="edge11" class="edge">
<title>SectionSimpleModule&#45;&gt;CatoModule</title>
<path fill="none" stroke="#000000" d="M1860.3051,-122.1061C1860.3051,-122.1061 1860.3051,-140.991 1860.3051,-140.991"/>
<polygon fill="#000000" stroke="#000000" points="1856.8051,-140.9909 1860.3051,-150.991 1863.8051,-140.991 1856.8051,-140.9909"/>
</g>
<!-- SectionTextGridModule -->
<g id="node13" class="node">
<title>SectionTextGridModule</title>
<polygon fill="#8dd3c7" stroke="#000000" points="1717.3585,-122 1714.3585,-126 1693.3585,-126 1690.3585,-122 1564.6415,-122 1564.6415,-86 1717.3585,-86 1717.3585,-122"/>
<text text-anchor="middle" x="1641" y="-99.8" font-family="Times,serif" font-size="14.00" fill="#000000">SectionTextGridModule</text>
</g>
<!-- SectionTextGridModule&#45;&gt;CatoModule -->
<g id="edge12" class="edge">
<title>SectionTextGridModule&#45;&gt;CatoModule</title>
<path fill="none" stroke="#000000" d="M1641,-122.1243C1641,-136.7832 1641,-155 1641,-155 1641,-155 1833.8686,-155 1833.8686,-155"/>
<polygon fill="#000000" stroke="#000000" points="1833.8686,-158.5001 1843.8686,-155 1833.8685,-151.5001 1833.8686,-158.5001"/>
</g>
<!-- SectionWithCarousel1Module -->
<g id="node14" class="node">
<title>SectionWithCarousel1Module</title>
<polygon fill="#8dd3c7" stroke="#000000" points="1546.3004,-122 1543.3004,-126 1522.3004,-126 1519.3004,-122 1359.6996,-122 1359.6996,-86 1546.3004,-86 1546.3004,-122"/>
<text text-anchor="middle" x="1453" y="-99.8" font-family="Times,serif" font-size="14.00" fill="#000000">SectionWithCarousel1Module</text>
</g>
<!-- SectionWithCarousel1Module&#45;&gt;CatoModule -->
<g id="edge13" class="edge">
<title>SectionWithCarousel1Module&#45;&gt;CatoModule</title>
<path fill="none" stroke="#000000" d="M1453,-122.0091C1453,-138.0494 1453,-159 1453,-159 1453,-159 1833.7997,-159 1833.7997,-159"/>
<polygon fill="#000000" stroke="#000000" points="1833.7998,-162.5001 1843.7997,-159 1833.7997,-155.5001 1833.7998,-162.5001"/>
</g>
<!-- SectionWithCarousel2Module -->
<g id="node15" class="node">
<title>SectionWithCarousel2Module</title>
<polygon fill="#8dd3c7" stroke="#000000" points="1342.3004,-122 1339.3004,-126 1318.3004,-126 1315.3004,-122 1155.6996,-122 1155.6996,-86 1342.3004,-86 1342.3004,-122"/>
<text text-anchor="middle" x="1249" y="-99.8" font-family="Times,serif" font-size="14.00" fill="#000000">SectionWithCarousel2Module</text>
</g>
<!-- SectionWithCarousel2Module&#45;&gt;CatoModule -->
<g id="edge14" class="edge">
<title>SectionWithCarousel2Module&#45;&gt;CatoModule</title>
<path fill="none" stroke="#000000" d="M1249,-122.0336C1249,-139.0597 1249,-162 1249,-162 1249,-162 1833.6493,-162 1833.6493,-162"/>
<polygon fill="#000000" stroke="#000000" points="1833.6493,-165.5001 1843.6493,-162 1833.6492,-158.5001 1833.6493,-165.5001"/>
</g>
<!-- SectionWithCollapsibleGridModule -->
<g id="node16" class="node">
<title>SectionWithCollapsibleGridModule</title>
<polygon fill="#8dd3c7" stroke="#000000" points="1137.4692,-122 1134.4692,-126 1113.4692,-126 1110.4692,-122 918.5308,-122 918.5308,-86 1137.4692,-86 1137.4692,-122"/>
<text text-anchor="middle" x="1028" y="-99.8" font-family="Times,serif" font-size="14.00" fill="#000000">SectionWithCollapsibleGridModule</text>
</g>
<!-- SectionWithCollapsibleGridModule&#45;&gt;CatoModule -->
<g id="edge15" class="edge">
<title>SectionWithCollapsibleGridModule&#45;&gt;CatoModule</title>
<path fill="none" stroke="#000000" d="M1028,-122.2667C1028,-140.5552 1028,-166 1028,-166 1028,-166 1833.8134,-166 1833.8134,-166"/>
<polygon fill="#000000" stroke="#000000" points="1833.8134,-169.5001 1843.8134,-166 1833.8133,-162.5001 1833.8134,-169.5001"/>
</g>
<!-- SectionWithCollapsibleModule -->
<g id="node17" class="node">
<title>SectionWithCollapsibleModule</title>
<polygon fill="#8dd3c7" stroke="#000000" points="900.8117,-122 897.8117,-126 876.8117,-126 873.8117,-122 707.1883,-122 707.1883,-86 900.8117,-86 900.8117,-122"/>
<text text-anchor="middle" x="804" y="-99.8" font-family="Times,serif" font-size="14.00" fill="#000000">SectionWithCollapsibleModule</text>
</g>
<!-- SectionWithCollapsibleModule&#45;&gt;CatoModule -->
<g id="edge16" class="edge">
<title>SectionWithCollapsibleModule&#45;&gt;CatoModule</title>
<path fill="none" stroke="#000000" d="M804,-122.1061C804,-141.3391 804,-169 804,-169 804,-169 1833.8768,-169 1833.8768,-169"/>
<polygon fill="#000000" stroke="#000000" points="1833.8768,-172.5001 1843.8768,-169 1833.8768,-165.5001 1833.8768,-172.5001"/>
</g>
<!-- SectionWithMultipleSubsectionModule -->
<g id="node18" class="node">
<title>SectionWithMultipleSubsectionModule</title>
<polygon fill="#8dd3c7" stroke="#000000" points="689.6979,-122 686.6979,-126 665.6979,-126 662.6979,-122 450.3021,-122 450.3021,-86 689.6979,-86 689.6979,-122"/>
<text text-anchor="middle" x="570" y="-99.8" font-family="Times,serif" font-size="14.00" fill="#000000">SectionWithMultipleSubsectionModule</text>
</g>
<!-- SectionWithMultipleSubsectionModule&#45;&gt;CatoModule -->
<g id="edge17" class="edge">
<title>SectionWithMultipleSubsectionModule&#45;&gt;CatoModule</title>
<path fill="none" stroke="#000000" d="M570,-122.1289C570,-142.5724 570,-173 570,-173 570,-173 1833.9298,-173 1833.9298,-173"/>
<polygon fill="#000000" stroke="#000000" points="1833.9299,-176.5001 1843.9298,-173 1833.9298,-169.5001 1833.9299,-176.5001"/>
</g>
<!-- SectionWithScrollModule -->
<g id="node19" class="node">
<title>SectionWithScrollModule</title>
<polygon fill="#8dd3c7" stroke="#000000" points="432.4776,-122 429.4776,-126 408.4776,-126 405.4776,-122 269.5224,-122 269.5224,-86 432.4776,-86 432.4776,-122"/>
<text text-anchor="middle" x="351" y="-99.8" font-family="Times,serif" font-size="14.00" fill="#000000">SectionWithScrollModule</text>
</g>
<!-- SectionWithScrollModule&#45;&gt;CatoModule -->
<g id="edge18" class="edge">
<title>SectionWithScrollModule&#45;&gt;CatoModule</title>
<path fill="none" stroke="#000000" d="M351,-122.0449C351,-143.6623 351,-177 351,-177 351,-177 1833.911,-177 1833.911,-177"/>
<polygon fill="#000000" stroke="#000000" points="1833.911,-180.5001 1843.911,-177 1833.9109,-173.5001 1833.911,-180.5001"/>
</g>
<!-- SectorModule -->
<g id="node20" class="node">
<title>SectorModule</title>
<polygon fill="#8dd3c7" stroke="#000000" points="251.8133,-122 248.8133,-126 227.8133,-126 224.8133,-122 156.1867,-122 156.1867,-86 251.8133,-86 251.8133,-122"/>
<text text-anchor="middle" x="204" y="-99.8" font-family="Times,serif" font-size="14.00" fill="#000000">SectorModule</text>
</g>
<!-- SectorModule&#45;&gt;CatoModule -->
<g id="edge19" class="edge">
<title>SectorModule&#45;&gt;CatoModule</title>
<path fill="none" stroke="#000000" d="M204,-122.0109C204,-144.4852 204,-180 204,-180 204,-180 1833.7062,-180 1833.7062,-180"/>
<polygon fill="#000000" stroke="#000000" points="1833.7063,-183.5001 1843.7062,-180 1833.7062,-176.5001 1833.7063,-183.5001"/>
</g>
<!-- SubMenuModule -->
<g id="node21" class="node">
<title>SubMenuModule</title>
<polygon fill="#8dd3c7" stroke="#000000" points="137.9916,-122 134.9916,-126 113.9916,-126 110.9916,-122 24.0084,-122 24.0084,-86 137.9916,-86 137.9916,-122"/>
<text text-anchor="middle" x="81" y="-99.8" font-family="Times,serif" font-size="14.00" fill="#000000">SubMenuModule</text>
</g>
<!-- SubMenuModule&#45;&gt;CatoModule -->
<g id="edge20" class="edge">
<title>SubMenuModule&#45;&gt;CatoModule</title>
<path fill="none" stroke="#000000" d="M81,-122.1532C81,-145.7566 81,-184 81,-184 81,-184 1833.6962,-184 1833.6962,-184"/>
<polygon fill="#000000" stroke="#000000" points="1833.6962,-187.5001 1843.6962,-184 1833.6962,-180.5001 1833.6962,-187.5001"/>
</g>
</g>
</svg>
