<?xml version="1.0" encoding="UTF-8" standalone="no"?>
<!DOCTYPE svg PUBLIC "-//W3C//DTD SVG 1.1//EN"
 "http://www.w3.org/Graphics/SVG/1.1/DTD/svg11.dtd">
<!-- Generated by graphviz version 2.40.1 (20161225.0304)
 -->
<!-- Title: dependencies Pages: 1 -->
<svg width="504pt" height="284pt"
 viewBox="0.00 0.00 504.00 284.00" xmlns="http://www.w3.org/2000/svg" xmlns:xlink="http://www.w3.org/1999/xlink">
<g id="graph0" class="graph" transform="scale(1 1) rotate(0) translate(4 280)">
<title>dependencies</title>
<polygon fill="#ffffff" stroke="transparent" points="-4,4 -4,-280 500,-280 500,4 -4,4"/>
<text text-anchor="start" x="227.0091" y="-42.4" font-family="sans-serif" font-weight="bold" font-size="14.00" fill="#000000">Legend</text>
<polygon fill="#ffffb3" stroke="transparent" points="14,-10 14,-30 34,-30 34,-10 14,-10"/>
<text text-anchor="start" x="37.629" y="-15.4" font-family="sans-serif" font-size="14.00" fill="#000000"> &#160;Declarations</text>
<polygon fill="#8dd3c7" stroke="transparent" points="127,-10 127,-30 147,-30 147,-10 127,-10"/>
<text text-anchor="start" x="150.7251" y="-15.4" font-family="sans-serif" font-size="14.00" fill="#000000"> &#160;Module</text>
<polygon fill="#80b1d3" stroke="transparent" points="213,-10 213,-30 233,-30 233,-10 213,-10"/>
<text text-anchor="start" x="236.7812" y="-15.4" font-family="sans-serif" font-size="14.00" fill="#000000"> &#160;Bootstrap</text>
<polygon fill="#fdb462" stroke="transparent" points="310,-10 310,-30 330,-30 330,-10 310,-10"/>
<text text-anchor="start" x="333.6732" y="-15.4" font-family="sans-serif" font-size="14.00" fill="#000000"> &#160;Providers</text>
<polygon fill="#fb8072" stroke="transparent" points="406,-10 406,-30 426,-30 426,-10 406,-10"/>
<text text-anchor="start" x="429.7258" y="-15.4" font-family="sans-serif" font-size="14.00" fill="#000000"> &#160;Exports</text>
<g id="clust1" class="cluster">
<title>cluster_SectionWithCollapsibleGridModule</title>
<polygon fill="none" stroke="#000000" stroke-dasharray="1,5" points="19,-70 19,-268 477,-268 477,-70 19,-70"/>
</g>
<g id="clust2" class="cluster">
<title>cluster_SectionWithCollapsibleGridModule_declarations</title>
<polygon fill="none" stroke="#000000" points="213,-78 213,-130 469,-130 469,-78 213,-78"/>
</g>
<g id="clust4" class="cluster">
<title>cluster_SectionWithCollapsibleGridModule_imports</title>
<polygon fill="none" stroke="#000000" points="27,-78 27,-130 205,-130 205,-78 27,-78"/>
</g>
<g id="clust5" class="cluster">
<title>cluster_SectionWithCollapsibleGridModule_exports</title>
<polygon fill="none" stroke="#000000" points="118,-208 118,-260 378,-260 378,-208 118,-208"/>
</g>
<!-- SectionWithCollapsibleGridComponent -->
<g id="node1" class="node">
<title>SectionWithCollapsibleGridComponent</title>
<polygon fill="#ffffb3" stroke="#000000" points="461.2519,-122 220.7481,-122 220.7481,-86 461.2519,-86 461.2519,-122"/>
<text text-anchor="middle" x="341" y="-99.8" font-family="Times,serif" font-size="14.00" fill="#000000">SectionWithCollapsibleGridComponent</text>
</g>
<!-- SectionWithCollapsibleGridModule -->
<g id="node2" class="node">
<title>SectionWithCollapsibleGridModule</title>
<polygon fill="#8dd3c7" stroke="#000000" points="357.4692,-187 354.4692,-191 333.4692,-191 330.4692,-187 138.5308,-187 138.5308,-151 357.4692,-151 357.4692,-187"/>
<text text-anchor="middle" x="248" y="-164.8" font-family="Times,serif" font-size="14.00" fill="#000000">SectionWithCollapsibleGridModule</text>
</g>
<!-- SectionWithCollapsibleGridComponent&#45;&gt;SectionWithCollapsibleGridModule -->
<g id="edge1" class="edge">
<title>SectionWithCollapsibleGridComponent&#45;&gt;SectionWithCollapsibleGridModule</title>
<path fill="none" stroke="#000000" d="M289.0544,-122.1061C289.0544,-122.1061 289.0544,-140.991 289.0544,-140.991"/>
<polygon fill="#000000" stroke="#000000" points="285.5544,-140.9909 289.0544,-150.991 292.5544,-140.991 285.5544,-140.9909"/>
</g>
<!-- SectionWithCollapsibleGridComponent  -->
<g id="node4" class="node">
<title>SectionWithCollapsibleGridComponent </title>
<polygon fill="#fb8072" stroke="#000000" points="370.2519,-252 125.7481,-252 125.7481,-216 370.2519,-216 370.2519,-252"/>
<text text-anchor="middle" x="248" y="-229.8" font-family="Times,serif" font-size="14.00" fill="#000000">SectionWithCollapsibleGridComponent </text>
</g>
<!-- SectionWithCollapsibleGridModule&#45;&gt;SectionWithCollapsibleGridComponent  -->
<g id="edge3" class="edge">
<title>SectionWithCollapsibleGridModule&#45;&gt;SectionWithCollapsibleGridComponent </title>
<path fill="none" stroke="#000000" stroke-dasharray="5,2" d="M248,-187.1061C248,-187.1061 248,-205.991 248,-205.991"/>
<polygon fill="#000000" stroke="#000000" points="244.5001,-205.9909 248,-215.991 251.5001,-205.991 244.5001,-205.9909"/>
</g>
<!-- DevelopmentCardModule -->
<g id="node3" class="node">
<title>DevelopmentCardModule</title>
<polygon fill="#8dd3c7" stroke="#000000" points="197.1839,-122 194.1839,-126 173.1839,-126 170.1839,-122 34.8161,-122 34.8161,-86 197.1839,-86 197.1839,-122"/>
<text text-anchor="middle" x="116" y="-99.8" font-family="Times,serif" font-size="14.00" fill="#000000">DevelopmentCardModule</text>
</g>
<!-- DevelopmentCardModule&#45;&gt;SectionWithCollapsibleGridModule -->
<g id="edge2" class="edge">
<title>DevelopmentCardModule&#45;&gt;SectionWithCollapsibleGridModule</title>
<path fill="none" stroke="#000000" d="M167.8037,-122.1061C167.8037,-122.1061 167.8037,-140.991 167.8037,-140.991"/>
<polygon fill="#000000" stroke="#000000" points="164.3037,-140.9909 167.8037,-150.991 171.3037,-140.991 164.3037,-140.9909"/>
</g>
</g>
</svg>
