<?xml version="1.0" encoding="UTF-8" standalone="no"?>
<!DOCTYPE svg PUBLIC "-//W3C//DTD SVG 1.1//EN"
 "http://www.w3.org/Graphics/SVG/1.1/DTD/svg11.dtd">
<!-- Generated by graphviz version 2.40.1 (20161225.0304)
 -->
<!-- Title: dependencies Pages: 1 -->
<svg width="504pt" height="284pt"
 viewBox="0.00 0.00 504.00 284.00" xmlns="http://www.w3.org/2000/svg" xmlns:xlink="http://www.w3.org/1999/xlink">
<g id="graph0" class="graph" transform="scale(1 1) rotate(0) translate(4 280)">
<title>dependencies</title>
<polygon fill="#ffffff" stroke="transparent" points="-4,4 -4,-280 500,-280 500,4 -4,4"/>
<text text-anchor="start" x="227.0091" y="-42.4" font-family="sans-serif" font-weight="bold" font-size="14.00" fill="#000000">Legend</text>
<polygon fill="#ffffb3" stroke="transparent" points="14,-10 14,-30 34,-30 34,-10 14,-10"/>
<text text-anchor="start" x="37.629" y="-15.4" font-family="sans-serif" font-size="14.00" fill="#000000"> &#160;Declarations</text>
<polygon fill="#8dd3c7" stroke="transparent" points="127,-10 127,-30 147,-30 147,-10 127,-10"/>
<text text-anchor="start" x="150.7251" y="-15.4" font-family="sans-serif" font-size="14.00" fill="#000000"> &#160;Module</text>
<polygon fill="#80b1d3" stroke="transparent" points="213,-10 213,-30 233,-30 233,-10 213,-10"/>
<text text-anchor="start" x="236.7812" y="-15.4" font-family="sans-serif" font-size="14.00" fill="#000000"> &#160;Bootstrap</text>
<polygon fill="#fdb462" stroke="transparent" points="310,-10 310,-30 330,-30 330,-10 310,-10"/>
<text text-anchor="start" x="333.6732" y="-15.4" font-family="sans-serif" font-size="14.00" fill="#000000"> &#160;Providers</text>
<polygon fill="#fb8072" stroke="transparent" points="406,-10 406,-30 426,-30 426,-10 406,-10"/>
<text text-anchor="start" x="429.7258" y="-15.4" font-family="sans-serif" font-size="14.00" fill="#000000"> &#160;Exports</text>
<g id="clust1" class="cluster">
<title>cluster_SectionWithCollapsibleModule</title>
<polygon fill="none" stroke="#000000" stroke-dasharray="1,5" points="50,-70 50,-268 446,-268 446,-70 50,-70"/>
</g>
<g id="clust2" class="cluster">
<title>cluster_SectionWithCollapsibleModule_declarations</title>
<polygon fill="none" stroke="#000000" points="206,-78 206,-130 438,-130 438,-78 206,-78"/>
</g>
<g id="clust4" class="cluster">
<title>cluster_SectionWithCollapsibleModule_imports</title>
<polygon fill="none" stroke="#000000" points="58,-78 58,-130 198,-130 198,-78 58,-78"/>
</g>
<g id="clust5" class="cluster">
<title>cluster_SectionWithCollapsibleModule_exports</title>
<polygon fill="none" stroke="#000000" points="131,-208 131,-260 365,-260 365,-208 131,-208"/>
</g>
<!-- SectionWithCollapsibleComponent -->
<g id="node1" class="node">
<title>SectionWithCollapsibleComponent</title>
<polygon fill="#ffffb3" stroke="#000000" points="429.594,-122 214.406,-122 214.406,-86 429.594,-86 429.594,-122"/>
<text text-anchor="middle" x="322" y="-99.8" font-family="Times,serif" font-size="14.00" fill="#000000">SectionWithCollapsibleComponent</text>
</g>
<!-- SectionWithCollapsibleModule -->
<g id="node2" class="node">
<title>SectionWithCollapsibleModule</title>
<polygon fill="#8dd3c7" stroke="#000000" points="344.8117,-187 341.8117,-191 320.8117,-191 317.8117,-187 151.1883,-187 151.1883,-151 344.8117,-151 344.8117,-187"/>
<text text-anchor="middle" x="248" y="-164.8" font-family="Times,serif" font-size="14.00" fill="#000000">SectionWithCollapsibleModule</text>
</g>
<!-- SectionWithCollapsibleComponent&#45;&gt;SectionWithCollapsibleModule -->
<g id="edge1" class="edge">
<title>SectionWithCollapsibleComponent&#45;&gt;SectionWithCollapsibleModule</title>
<path fill="none" stroke="#000000" d="M279.5544,-122.1061C279.5544,-122.1061 279.5544,-140.991 279.5544,-140.991"/>
<polygon fill="#000000" stroke="#000000" points="276.0544,-140.9909 279.5544,-150.991 283.0544,-140.991 276.0544,-140.9909"/>
</g>
<!-- SectionWithCollapsibleComponent  -->
<g id="node4" class="node">
<title>SectionWithCollapsibleComponent </title>
<polygon fill="#fb8072" stroke="#000000" points="357.0944,-252 138.9056,-252 138.9056,-216 357.0944,-216 357.0944,-252"/>
<text text-anchor="middle" x="248" y="-229.8" font-family="Times,serif" font-size="14.00" fill="#000000">SectionWithCollapsibleComponent </text>
</g>
<!-- SectionWithCollapsibleModule&#45;&gt;SectionWithCollapsibleComponent  -->
<g id="edge3" class="edge">
<title>SectionWithCollapsibleModule&#45;&gt;SectionWithCollapsibleComponent </title>
<path fill="none" stroke="#000000" stroke-dasharray="5,2" d="M248,-187.1061C248,-187.1061 248,-205.991 248,-205.991"/>
<polygon fill="#000000" stroke="#000000" points="244.5001,-205.9909 248,-215.991 251.5001,-205.991 244.5001,-205.9909"/>
</g>
<!-- CollapsibleModule -->
<g id="node3" class="node">
<title>CollapsibleModule</title>
<polygon fill="#8dd3c7" stroke="#000000" points="189.823,-122 186.823,-126 165.823,-126 162.823,-122 66.177,-122 66.177,-86 189.823,-86 189.823,-122"/>
<text text-anchor="middle" x="128" y="-99.8" font-family="Times,serif" font-size="14.00" fill="#000000">CollapsibleModule</text>
</g>
<!-- CollapsibleModule&#45;&gt;SectionWithCollapsibleModule -->
<g id="edge2" class="edge">
<title>CollapsibleModule&#45;&gt;SectionWithCollapsibleModule</title>
<path fill="none" stroke="#000000" d="M170.5028,-122.1061C170.5028,-122.1061 170.5028,-140.991 170.5028,-140.991"/>
<polygon fill="#000000" stroke="#000000" points="167.0029,-140.9909 170.5028,-150.991 174.0029,-140.991 167.0029,-140.9909"/>
</g>
</g>
</svg>
