<?xml version="1.0" encoding="UTF-8" standalone="no"?>
<!DOCTYPE svg PUBLIC "-//W3C//DTD SVG 1.1//EN"
 "http://www.w3.org/Graphics/SVG/1.1/DTD/svg11.dtd">
<!-- Generated by graphviz version 2.40.1 (20161225.0304)
 -->
<!-- Title: dependencies Pages: 1 -->
<svg width="504pt" height="284pt"
 viewBox="0.00 0.00 504.00 284.00" xmlns="http://www.w3.org/2000/svg" xmlns:xlink="http://www.w3.org/1999/xlink">
<g id="graph0" class="graph" transform="scale(1 1) rotate(0) translate(4 280)">
<title>dependencies</title>
<polygon fill="#ffffff" stroke="transparent" points="-4,4 -4,-280 500,-280 500,4 -4,4"/>
<text text-anchor="start" x="227.0091" y="-42.4" font-family="sans-serif" font-weight="bold" font-size="14.00" fill="#000000">Legend</text>
<polygon fill="#ffffb3" stroke="transparent" points="14,-10 14,-30 34,-30 34,-10 14,-10"/>
<text text-anchor="start" x="37.629" y="-15.4" font-family="sans-serif" font-size="14.00" fill="#000000"> &#160;Declarations</text>
<polygon fill="#8dd3c7" stroke="transparent" points="127,-10 127,-30 147,-30 147,-10 127,-10"/>
<text text-anchor="start" x="150.7251" y="-15.4" font-family="sans-serif" font-size="14.00" fill="#000000"> &#160;Module</text>
<polygon fill="#80b1d3" stroke="transparent" points="213,-10 213,-30 233,-30 233,-10 213,-10"/>
<text text-anchor="start" x="236.7812" y="-15.4" font-family="sans-serif" font-size="14.00" fill="#000000"> &#160;Bootstrap</text>
<polygon fill="#fdb462" stroke="transparent" points="310,-10 310,-30 330,-30 330,-10 310,-10"/>
<text text-anchor="start" x="333.6732" y="-15.4" font-family="sans-serif" font-size="14.00" fill="#000000"> &#160;Providers</text>
<polygon fill="#fb8072" stroke="transparent" points="406,-10 406,-30 426,-30 426,-10 406,-10"/>
<text text-anchor="start" x="429.7258" y="-15.4" font-family="sans-serif" font-size="14.00" fill="#000000"> &#160;Exports</text>
<g id="clust1" class="cluster">
<title>cluster_CarouselWithTileModule</title>
<polygon fill="none" stroke="#000000" stroke-dasharray="1,5" points="49,-70 49,-268 447,-268 447,-70 49,-70"/>
</g>
<g id="clust2" class="cluster">
<title>cluster_CarouselWithTileModule_declarations</title>
<polygon fill="none" stroke="#000000" points="241,-78 241,-130 439,-130 439,-78 241,-78"/>
</g>
<g id="clust4" class="cluster">
<title>cluster_CarouselWithTileModule_imports</title>
<polygon fill="none" stroke="#000000" points="57,-78 57,-130 233,-130 233,-78 57,-78"/>
</g>
<g id="clust5" class="cluster">
<title>cluster_CarouselWithTileModule_exports</title>
<polygon fill="none" stroke="#000000" points="147,-208 147,-260 349,-260 349,-208 147,-208"/>
</g>
<!-- CarouselWithTileComponent -->
<g id="node1" class="node">
<title>CarouselWithTileComponent</title>
<polygon fill="#ffffb3" stroke="#000000" points="430.6386,-122 249.3614,-122 249.3614,-86 430.6386,-86 430.6386,-122"/>
<text text-anchor="middle" x="340" y="-99.8" font-family="Times,serif" font-size="14.00" fill="#000000">CarouselWithTileComponent</text>
</g>
<!-- CarouselWithTileModule -->
<g id="node2" class="node">
<title>CarouselWithTileModule</title>
<polygon fill="#8dd3c7" stroke="#000000" points="327.8557,-187 324.8557,-191 303.8557,-191 300.8557,-187 168.1443,-187 168.1443,-151 327.8557,-151 327.8557,-187"/>
<text text-anchor="middle" x="248" y="-164.8" font-family="Times,serif" font-size="14.00" fill="#000000">CarouselWithTileModule</text>
</g>
<!-- CarouselWithTileComponent&#45;&gt;CarouselWithTileModule -->
<g id="edge1" class="edge">
<title>CarouselWithTileComponent&#45;&gt;CarouselWithTileModule</title>
<path fill="none" stroke="#000000" d="M288.5544,-122.1061C288.5544,-122.1061 288.5544,-140.991 288.5544,-140.991"/>
<polygon fill="#000000" stroke="#000000" points="285.0544,-140.9909 288.5544,-150.991 292.0544,-140.991 285.0544,-140.9909"/>
</g>
<!-- CarouselWithTileComponent  -->
<g id="node4" class="node">
<title>CarouselWithTileComponent </title>
<polygon fill="#fb8072" stroke="#000000" points="340.6383,-252 155.3617,-252 155.3617,-216 340.6383,-216 340.6383,-252"/>
<text text-anchor="middle" x="248" y="-229.8" font-family="Times,serif" font-size="14.00" fill="#000000">CarouselWithTileComponent </text>
</g>
<!-- CarouselWithTileModule&#45;&gt;CarouselWithTileComponent  -->
<g id="edge3" class="edge">
<title>CarouselWithTileModule&#45;&gt;CarouselWithTileComponent </title>
<path fill="none" stroke="#000000" stroke-dasharray="5,2" d="M248,-187.1061C248,-187.1061 248,-205.991 248,-205.991"/>
<polygon fill="#000000" stroke="#000000" points="244.5001,-205.9909 248,-215.991 251.5001,-205.991 244.5001,-205.9909"/>
</g>
<!-- CardCarouselTileModule -->
<g id="node3" class="node">
<title>CardCarouselTileModule</title>
<polygon fill="#8dd3c7" stroke="#000000" points="224.5716,-122 221.5716,-126 200.5716,-126 197.5716,-122 65.4284,-122 65.4284,-86 224.5716,-86 224.5716,-122"/>
<text text-anchor="middle" x="145" y="-99.8" font-family="Times,serif" font-size="14.00" fill="#000000">CardCarouselTileModule</text>
</g>
<!-- CardCarouselTileModule&#45;&gt;CarouselWithTileModule -->
<g id="edge2" class="edge">
<title>CardCarouselTileModule&#45;&gt;CarouselWithTileModule</title>
<path fill="none" stroke="#000000" d="M196.304,-122.1061C196.304,-122.1061 196.304,-140.991 196.304,-140.991"/>
<polygon fill="#000000" stroke="#000000" points="192.8041,-140.9909 196.304,-150.991 199.8041,-140.991 192.8041,-140.9909"/>
</g>
</g>
</svg>
