<?xml version="1.0" encoding="UTF-8" standalone="no"?>
<!DOCTYPE svg PUBLIC "-//W3C//DTD SVG 1.1//EN"
 "http://www.w3.org/Graphics/SVG/1.1/DTD/svg11.dtd">
<!-- Generated by graphviz version 2.40.1 (20161225.0304)
 -->
<!-- Title: dependencies Pages: 1 -->
<svg width="504pt" height="284pt"
 viewBox="0.00 0.00 504.00 284.00" xmlns="http://www.w3.org/2000/svg" xmlns:xlink="http://www.w3.org/1999/xlink">
<g id="graph0" class="graph" transform="scale(1 1) rotate(0) translate(4 280)">
<title>dependencies</title>
<polygon fill="#ffffff" stroke="transparent" points="-4,4 -4,-280 500,-280 500,4 -4,4"/>
<text text-anchor="start" x="227.0091" y="-42.4" font-family="sans-serif" font-weight="bold" font-size="14.00" fill="#000000">Legend</text>
<polygon fill="#ffffb3" stroke="transparent" points="14,-10 14,-30 34,-30 34,-10 14,-10"/>
<text text-anchor="start" x="37.629" y="-15.4" font-family="sans-serif" font-size="14.00" fill="#000000"> &#160;Declarations</text>
<polygon fill="#8dd3c7" stroke="transparent" points="127,-10 127,-30 147,-30 147,-10 127,-10"/>
<text text-anchor="start" x="150.7251" y="-15.4" font-family="sans-serif" font-size="14.00" fill="#000000"> &#160;Module</text>
<polygon fill="#80b1d3" stroke="transparent" points="213,-10 213,-30 233,-30 233,-10 213,-10"/>
<text text-anchor="start" x="236.7812" y="-15.4" font-family="sans-serif" font-size="14.00" fill="#000000"> &#160;Bootstrap</text>
<polygon fill="#fdb462" stroke="transparent" points="310,-10 310,-30 330,-30 330,-10 310,-10"/>
<text text-anchor="start" x="333.6732" y="-15.4" font-family="sans-serif" font-size="14.00" fill="#000000"> &#160;Providers</text>
<polygon fill="#fb8072" stroke="transparent" points="406,-10 406,-30 426,-30 426,-10 406,-10"/>
<text text-anchor="start" x="429.7258" y="-15.4" font-family="sans-serif" font-size="14.00" fill="#000000"> &#160;Exports</text>
<g id="clust1" class="cluster">
<title>cluster_SectorModule</title>
<polygon fill="none" stroke="#000000" stroke-dasharray="1,5" points="103,-70 103,-268 393,-268 393,-70 103,-70"/>
</g>
<g id="clust2" class="cluster">
<title>cluster_SectorModule_declarations</title>
<polygon fill="none" stroke="#000000" points="251,-78 251,-130 385,-130 385,-78 251,-78"/>
</g>
<g id="clust4" class="cluster">
<title>cluster_SectorModule_imports</title>
<polygon fill="none" stroke="#000000" points="111,-78 111,-130 243,-130 243,-78 111,-78"/>
</g>
<g id="clust5" class="cluster">
<title>cluster_SectorModule_exports</title>
<polygon fill="none" stroke="#000000" points="180,-208 180,-260 316,-260 316,-208 180,-208"/>
</g>
<!-- SectorComponent -->
<g id="node1" class="node">
<title>SectorComponent</title>
<polygon fill="#ffffb3" stroke="#000000" points="376.5954,-122 259.4046,-122 259.4046,-86 376.5954,-86 376.5954,-122"/>
<text text-anchor="middle" x="318" y="-99.8" font-family="Times,serif" font-size="14.00" fill="#000000">SectorComponent</text>
</g>
<!-- SectorModule -->
<g id="node2" class="node">
<title>SectorModule</title>
<polygon fill="#8dd3c7" stroke="#000000" points="295.8133,-187 292.8133,-191 271.8133,-191 268.8133,-187 200.1867,-187 200.1867,-151 295.8133,-151 295.8133,-187"/>
<text text-anchor="middle" x="248" y="-164.8" font-family="Times,serif" font-size="14.00" fill="#000000">SectorModule</text>
</g>
<!-- SectorComponent&#45;&gt;SectorModule -->
<g id="edge1" class="edge">
<title>SectorComponent&#45;&gt;SectorModule</title>
<path fill="none" stroke="#000000" d="M277.5544,-122.1061C277.5544,-122.1061 277.5544,-140.991 277.5544,-140.991"/>
<polygon fill="#000000" stroke="#000000" points="274.0544,-140.9909 277.5544,-150.991 281.0544,-140.991 274.0544,-140.9909"/>
</g>
<!-- SectorComponent  -->
<g id="node4" class="node">
<title>SectorComponent </title>
<polygon fill="#fb8072" stroke="#000000" points="308.0961,-252 187.9039,-252 187.9039,-216 308.0961,-216 308.0961,-252"/>
<text text-anchor="middle" x="248" y="-229.8" font-family="Times,serif" font-size="14.00" fill="#000000">SectorComponent </text>
</g>
<!-- SectorModule&#45;&gt;SectorComponent  -->
<g id="edge3" class="edge">
<title>SectorModule&#45;&gt;SectorComponent </title>
<path fill="none" stroke="#000000" stroke-dasharray="5,2" d="M248,-187.1061C248,-187.1061 248,-205.991 248,-205.991"/>
<polygon fill="#000000" stroke="#000000" points="244.5001,-205.9909 248,-215.991 251.5001,-205.991 244.5001,-205.9909"/>
</g>
<!-- CardLogoModule -->
<g id="node3" class="node">
<title>CardLogoModule</title>
<polygon fill="#8dd3c7" stroke="#000000" points="235.3146,-122 232.3146,-126 211.3146,-126 208.3146,-122 118.6854,-122 118.6854,-86 235.3146,-86 235.3146,-122"/>
<text text-anchor="middle" x="177" y="-99.8" font-family="Times,serif" font-size="14.00" fill="#000000">CardLogoModule</text>
</g>
<!-- CardLogoModule&#45;&gt;SectorModule -->
<g id="edge2" class="edge">
<title>CardLogoModule&#45;&gt;SectorModule</title>
<path fill="none" stroke="#000000" d="M217.7504,-122.1061C217.7504,-122.1061 217.7504,-140.991 217.7504,-140.991"/>
<polygon fill="#000000" stroke="#000000" points="214.2504,-140.9909 217.7504,-150.991 221.2504,-140.991 214.2504,-140.9909"/>
</g>
</g>
</svg>
