<?xml version="1.0" encoding="UTF-8" standalone="no"?>
<!DOCTYPE svg PUBLIC "-//W3C//DTD SVG 1.1//EN"
 "http://www.w3.org/Graphics/SVG/1.1/DTD/svg11.dtd">
<!-- Generated by graphviz version 2.40.1 (20161225.0304)
 -->
<!-- Title: dependencies Pages: 1 -->
<svg width="2058pt" height="284pt"
 viewBox="0.00 0.00 2058.00 284.00" xmlns="http://www.w3.org/2000/svg" xmlns:xlink="http://www.w3.org/1999/xlink">
<g id="graph0" class="graph" transform="scale(1 1) rotate(0) translate(4 280)">
<title>dependencies</title>
<polygon fill="#ffffff" stroke="transparent" points="-4,4 -4,-280 2054,-280 2054,4 -4,4"/>
<text text-anchor="start" x="1004.0091" y="-42.4" font-family="sans-serif" font-weight="bold" font-size="14.00" fill="#000000">Legend</text>
<polygon fill="#ffffb3" stroke="transparent" points="791,-10 791,-30 811,-30 811,-10 791,-10"/>
<text text-anchor="start" x="814.629" y="-15.4" font-family="sans-serif" font-size="14.00" fill="#000000"> &#160;Declarations</text>
<polygon fill="#8dd3c7" stroke="transparent" points="904,-10 904,-30 924,-30 924,-10 904,-10"/>
<text text-anchor="start" x="927.7251" y="-15.4" font-family="sans-serif" font-size="14.00" fill="#000000"> &#160;Module</text>
<polygon fill="#80b1d3" stroke="transparent" points="990,-10 990,-30 1010,-30 1010,-10 990,-10"/>
<text text-anchor="start" x="1013.7812" y="-15.4" font-family="sans-serif" font-size="14.00" fill="#000000"> &#160;Bootstrap</text>
<polygon fill="#fdb462" stroke="transparent" points="1087,-10 1087,-30 1107,-30 1107,-10 1087,-10"/>
<text text-anchor="start" x="1110.6732" y="-15.4" font-family="sans-serif" font-size="14.00" fill="#000000"> &#160;Providers</text>
<polygon fill="#fb8072" stroke="transparent" points="1183,-10 1183,-30 1203,-30 1203,-10 1183,-10"/>
<text text-anchor="start" x="1206.7258" y="-15.4" font-family="sans-serif" font-size="14.00" fill="#000000"> &#160;Exports</text>
<g id="clust1" class="cluster">
<title>cluster_HomeModule</title>
<polygon fill="none" stroke="#000000" stroke-dasharray="1,5" points="8,-70 8,-268 2042,-268 2042,-70 8,-70"/>
</g>
<g id="clust2" class="cluster">
<title>cluster_HomeModule_declarations</title>
<polygon fill="none" stroke="#000000" points="1902,-78 1902,-130 2034,-130 2034,-78 1902,-78"/>
</g>
<g id="clust4" class="cluster">
<title>cluster_HomeModule_imports</title>
<polygon fill="none" stroke="#000000" points="16,-78 16,-130 1894,-130 1894,-78 16,-78"/>
</g>
<g id="clust5" class="cluster">
<title>cluster_HomeModule_exports</title>
<polygon fill="none" stroke="#000000" points="1056,-208 1056,-260 1192,-260 1192,-208 1056,-208"/>
</g>
<!-- HomeComponent -->
<g id="node1" class="node">
<title>HomeComponent</title>
<polygon fill="#ffffb3" stroke="#000000" points="2025.5451,-122 1910.4549,-122 1910.4549,-86 2025.5451,-86 2025.5451,-122"/>
<text text-anchor="middle" x="1968" y="-99.8" font-family="Times,serif" font-size="14.00" fill="#000000">HomeComponent</text>
</g>
<!-- HomeModule -->
<g id="node2" class="node">
<title>HomeModule</title>
<polygon fill="#8dd3c7" stroke="#000000" points="1170.7619,-187 1167.7619,-191 1146.7619,-191 1143.7619,-187 1077.2381,-187 1077.2381,-151 1170.7619,-151 1170.7619,-187"/>
<text text-anchor="middle" x="1124" y="-164.8" font-family="Times,serif" font-size="14.00" fill="#000000">HomeModule</text>
</g>
<!-- HomeComponent&#45;&gt;HomeModule -->
<g id="edge1" class="edge">
<title>HomeComponent&#45;&gt;HomeModule</title>
<path fill="none" stroke="#000000" d="M1968,-122.2479C1968,-145.0179 1968,-181 1968,-181 1968,-181 1180.882,-181 1180.882,-181"/>
<polygon fill="#000000" stroke="#000000" points="1180.8821,-177.5001 1170.882,-181 1180.882,-184.5001 1180.8821,-177.5001"/>
</g>
<!-- HomeComponent  -->
<g id="node14" class="node">
<title>HomeComponent </title>
<polygon fill="#fb8072" stroke="#000000" points="1183.5442,-252 1064.4558,-252 1064.4558,-216 1183.5442,-216 1183.5442,-252"/>
<text text-anchor="middle" x="1124" y="-229.8" font-family="Times,serif" font-size="14.00" fill="#000000">HomeComponent </text>
</g>
<!-- HomeModule&#45;&gt;HomeComponent  -->
<g id="edge13" class="edge">
<title>HomeModule&#45;&gt;HomeComponent </title>
<path fill="none" stroke="#000000" stroke-dasharray="5,2" d="M1124,-187.1061C1124,-187.1061 1124,-205.991 1124,-205.991"/>
<polygon fill="#000000" stroke="#000000" points="1120.5001,-205.9909 1124,-215.991 1127.5001,-205.991 1120.5001,-205.9909"/>
</g>
<!-- CarouselWithItemModule -->
<g id="node3" class="node">
<title>CarouselWithItemModule</title>
<polygon fill="#8dd3c7" stroke="#000000" points="1886.4636,-122 1883.4636,-126 1862.4636,-126 1859.4636,-122 1723.5364,-122 1723.5364,-86 1886.4636,-86 1886.4636,-122"/>
<text text-anchor="middle" x="1805" y="-99.8" font-family="Times,serif" font-size="14.00" fill="#000000">CarouselWithItemModule</text>
</g>
<!-- CarouselWithItemModule&#45;&gt;HomeModule -->
<g id="edge2" class="edge">
<title>CarouselWithItemModule&#45;&gt;HomeModule</title>
<path fill="none" stroke="#000000" d="M1805,-122.2843C1805,-143.3211 1805,-175 1805,-175 1805,-175 1180.8079,-175 1180.8079,-175"/>
<polygon fill="#000000" stroke="#000000" points="1180.8079,-171.5001 1170.8079,-175 1180.8079,-178.5001 1180.8079,-171.5001"/>
</g>
<!-- CarouselWithTileModule -->
<g id="node4" class="node">
<title>CarouselWithTileModule</title>
<polygon fill="#8dd3c7" stroke="#000000" points="1705.8557,-122 1702.8557,-126 1681.8557,-126 1678.8557,-122 1546.1443,-122 1546.1443,-86 1705.8557,-86 1705.8557,-122"/>
<text text-anchor="middle" x="1626" y="-99.8" font-family="Times,serif" font-size="14.00" fill="#000000">CarouselWithTileModule</text>
</g>
<!-- CarouselWithTileModule&#45;&gt;HomeModule -->
<g id="edge3" class="edge">
<title>CarouselWithTileModule&#45;&gt;HomeModule</title>
<path fill="none" stroke="#000000" d="M1626,-122.1061C1626,-141.3391 1626,-169 1626,-169 1626,-169 1180.7762,-169 1180.7762,-169"/>
<polygon fill="#000000" stroke="#000000" points="1180.7762,-165.5001 1170.7762,-169 1180.7761,-172.5001 1180.7762,-165.5001"/>
</g>
<!-- DevelopmentCardModule -->
<g id="node5" class="node">
<title>DevelopmentCardModule</title>
<polygon fill="#8dd3c7" stroke="#000000" points="1528.1839,-122 1525.1839,-126 1504.1839,-126 1501.1839,-122 1365.8161,-122 1365.8161,-86 1528.1839,-86 1528.1839,-122"/>
<text text-anchor="middle" x="1447" y="-99.8" font-family="Times,serif" font-size="14.00" fill="#000000">DevelopmentCardModule</text>
</g>
<!-- DevelopmentCardModule&#45;&gt;HomeModule -->
<g id="edge4" class="edge">
<title>DevelopmentCardModule&#45;&gt;HomeModule</title>
<path fill="none" stroke="#000000" d="M1447,-122.0225C1447,-139.3734 1447,-163 1447,-163 1447,-163 1180.967,-163 1180.967,-163"/>
<polygon fill="#000000" stroke="#000000" points="1180.967,-159.5001 1170.967,-163 1180.9669,-166.5001 1180.967,-159.5001"/>
</g>
<!-- HeroModule -->
<g id="node6" class="node">
<title>HeroModule</title>
<polygon fill="#8dd3c7" stroke="#000000" points="1347.5328,-122 1344.5328,-126 1323.5328,-126 1320.5328,-122 1260.4672,-122 1260.4672,-86 1347.5328,-86 1347.5328,-122"/>
<text text-anchor="middle" x="1304" y="-99.8" font-family="Times,serif" font-size="14.00" fill="#000000">HeroModule</text>
</g>
<!-- HeroModule&#45;&gt;HomeModule -->
<g id="edge5" class="edge">
<title>HeroModule&#45;&gt;HomeModule</title>
<path fill="none" stroke="#000000" d="M1304,-122.2396C1304,-137.5706 1304,-157 1304,-157 1304,-157 1180.823,-157 1180.823,-157"/>
<polygon fill="#000000" stroke="#000000" points="1180.823,-153.5001 1170.823,-157 1180.823,-160.5001 1180.823,-153.5001"/>
</g>
<!-- JoinUsModule -->
<g id="node7" class="node">
<title>JoinUsModule</title>
<polygon fill="#8dd3c7" stroke="#000000" points="1242.4372,-122 1239.4372,-126 1218.4372,-126 1215.4372,-122 1143.5628,-122 1143.5628,-86 1242.4372,-86 1242.4372,-122"/>
<text text-anchor="middle" x="1193" y="-99.8" font-family="Times,serif" font-size="14.00" fill="#000000">JoinUsModule</text>
</g>
<!-- JoinUsModule&#45;&gt;HomeModule -->
<g id="edge6" class="edge">
<title>JoinUsModule&#45;&gt;HomeModule</title>
<path fill="none" stroke="#000000" d="M1157.3314,-122.1061C1157.3314,-122.1061 1157.3314,-140.991 1157.3314,-140.991"/>
<polygon fill="#000000" stroke="#000000" points="1153.8314,-140.9909 1157.3314,-150.991 1160.8314,-140.991 1153.8314,-140.9909"/>
</g>
<!-- SectionSimpleModule -->
<g id="node8" class="node">
<title>SectionSimpleModule</title>
<polygon fill="#8dd3c7" stroke="#000000" points="1125.712,-122 1122.712,-126 1101.712,-126 1098.712,-122 984.288,-122 984.288,-86 1125.712,-86 1125.712,-122"/>
<text text-anchor="middle" x="1055" y="-99.8" font-family="Times,serif" font-size="14.00" fill="#000000">SectionSimpleModule</text>
</g>
<!-- SectionSimpleModule&#45;&gt;HomeModule -->
<g id="edge7" class="edge">
<title>SectionSimpleModule&#45;&gt;HomeModule</title>
<path fill="none" stroke="#000000" d="M1101.3626,-122.1061C1101.3626,-122.1061 1101.3626,-140.991 1101.3626,-140.991"/>
<polygon fill="#000000" stroke="#000000" points="1097.8626,-140.9909 1101.3626,-150.991 1104.8626,-140.991 1097.8626,-140.9909"/>
</g>
<!-- SectionWithCarousel1Module -->
<g id="node9" class="node">
<title>SectionWithCarousel1Module</title>
<polygon fill="#8dd3c7" stroke="#000000" points="966.3004,-122 963.3004,-126 942.3004,-126 939.3004,-122 779.6996,-122 779.6996,-86 966.3004,-86 966.3004,-122"/>
<text text-anchor="middle" x="873" y="-99.8" font-family="Times,serif" font-size="14.00" fill="#000000">SectionWithCarousel1Module</text>
</g>
<!-- SectionWithCarousel1Module&#45;&gt;HomeModule -->
<g id="edge8" class="edge">
<title>SectionWithCarousel1Module&#45;&gt;HomeModule</title>
<path fill="none" stroke="#000000" d="M873,-122.2396C873,-137.5706 873,-157 873,-157 873,-157 1067.0833,-157 1067.0833,-157"/>
<polygon fill="#000000" stroke="#000000" points="1067.0833,-160.5001 1077.0833,-157 1067.0832,-153.5001 1067.0833,-160.5001"/>
</g>
<!-- SectionWithCarousel2Module -->
<g id="node10" class="node">
<title>SectionWithCarousel2Module</title>
<polygon fill="#8dd3c7" stroke="#000000" points="762.3004,-122 759.3004,-126 738.3004,-126 735.3004,-122 575.6996,-122 575.6996,-86 762.3004,-86 762.3004,-122"/>
<text text-anchor="middle" x="669" y="-99.8" font-family="Times,serif" font-size="14.00" fill="#000000">SectionWithCarousel2Module</text>
</g>
<!-- SectionWithCarousel2Module&#45;&gt;HomeModule -->
<g id="edge9" class="edge">
<title>SectionWithCarousel2Module&#45;&gt;HomeModule</title>
<path fill="none" stroke="#000000" d="M669,-122.0225C669,-139.3734 669,-163 669,-163 669,-163 1067.0207,-163 1067.0207,-163"/>
<polygon fill="#000000" stroke="#000000" points="1067.0208,-166.5001 1077.0207,-163 1067.0207,-159.5001 1067.0208,-166.5001"/>
</g>
<!-- SectionWithMultipleSubsectionModule -->
<g id="node11" class="node">
<title>SectionWithMultipleSubsectionModule</title>
<polygon fill="#8dd3c7" stroke="#000000" points="557.6979,-122 554.6979,-126 533.6979,-126 530.6979,-122 318.3021,-122 318.3021,-86 557.6979,-86 557.6979,-122"/>
<text text-anchor="middle" x="438" y="-99.8" font-family="Times,serif" font-size="14.00" fill="#000000">SectionWithMultipleSubsectionModule</text>
</g>
<!-- SectionWithMultipleSubsectionModule&#45;&gt;HomeModule -->
<g id="edge10" class="edge">
<title>SectionWithMultipleSubsectionModule&#45;&gt;HomeModule</title>
<path fill="none" stroke="#000000" d="M438,-122.1061C438,-141.3391 438,-169 438,-169 438,-169 1067.1184,-169 1067.1184,-169"/>
<polygon fill="#000000" stroke="#000000" points="1067.1185,-172.5001 1077.1184,-169 1067.1184,-165.5001 1067.1185,-172.5001"/>
</g>
<!-- SectionWithScrollModule -->
<g id="node12" class="node">
<title>SectionWithScrollModule</title>
<polygon fill="#8dd3c7" stroke="#000000" points="300.4776,-122 297.4776,-126 276.4776,-126 273.4776,-122 137.5224,-122 137.5224,-86 300.4776,-86 300.4776,-122"/>
<text text-anchor="middle" x="219" y="-99.8" font-family="Times,serif" font-size="14.00" fill="#000000">SectionWithScrollModule</text>
</g>
<!-- SectionWithScrollModule&#45;&gt;HomeModule -->
<g id="edge11" class="edge">
<title>SectionWithScrollModule&#45;&gt;HomeModule</title>
<path fill="none" stroke="#000000" d="M219,-122.2843C219,-143.3211 219,-175 219,-175 219,-175 1066.9337,-175 1066.9337,-175"/>
<polygon fill="#000000" stroke="#000000" points="1066.9337,-178.5001 1076.9337,-175 1066.9337,-171.5001 1066.9337,-178.5001"/>
</g>
<!-- SectorModule -->
<g id="node13" class="node">
<title>SectorModule</title>
<polygon fill="#8dd3c7" stroke="#000000" points="119.8133,-122 116.8133,-126 95.8133,-126 92.8133,-122 24.1867,-122 24.1867,-86 119.8133,-86 119.8133,-122"/>
<text text-anchor="middle" x="72" y="-99.8" font-family="Times,serif" font-size="14.00" fill="#000000">SectorModule</text>
</g>
<!-- SectorModule&#45;&gt;HomeModule -->
<g id="edge12" class="edge">
<title>SectorModule&#45;&gt;HomeModule</title>
<path fill="none" stroke="#000000" d="M72,-122.2479C72,-145.0179 72,-181 72,-181 72,-181 1067.0973,-181 1067.0973,-181"/>
<polygon fill="#000000" stroke="#000000" points="1067.0973,-184.5001 1077.0973,-181 1067.0973,-177.5001 1067.0973,-184.5001"/>
</g>
</g>
</svg>
