<?xml version="1.0" encoding="UTF-8" standalone="no"?>
<!DOCTYPE svg PUBLIC "-//W3C//DTD SVG 1.1//EN"
 "http://www.w3.org/Graphics/SVG/1.1/DTD/svg11.dtd">
<!-- Generated by graphviz version 2.40.1 (20161225.0304)
 -->
<!-- Title: dependencies Pages: 1 -->
<svg width="554pt" height="284pt"
 viewBox="0.00 0.00 554.00 284.00" xmlns="http://www.w3.org/2000/svg" xmlns:xlink="http://www.w3.org/1999/xlink">
<g id="graph0" class="graph" transform="scale(1 1) rotate(0) translate(4 280)">
<title>dependencies</title>
<polygon fill="#ffffff" stroke="transparent" points="-4,4 -4,-280 550,-280 550,4 -4,4"/>
<text text-anchor="start" x="252.0091" y="-42.4" font-family="sans-serif" font-weight="bold" font-size="14.00" fill="#000000">Legend</text>
<polygon fill="#ffffb3" stroke="transparent" points="39,-10 39,-30 59,-30 59,-10 39,-10"/>
<text text-anchor="start" x="62.629" y="-15.4" font-family="sans-serif" font-size="14.00" fill="#000000"> &#160;Declarations</text>
<polygon fill="#8dd3c7" stroke="transparent" points="152,-10 152,-30 172,-30 172,-10 152,-10"/>
<text text-anchor="start" x="175.7251" y="-15.4" font-family="sans-serif" font-size="14.00" fill="#000000"> &#160;Module</text>
<polygon fill="#80b1d3" stroke="transparent" points="238,-10 238,-30 258,-30 258,-10 238,-10"/>
<text text-anchor="start" x="261.7812" y="-15.4" font-family="sans-serif" font-size="14.00" fill="#000000"> &#160;Bootstrap</text>
<polygon fill="#fdb462" stroke="transparent" points="335,-10 335,-30 355,-30 355,-10 335,-10"/>
<text text-anchor="start" x="358.6732" y="-15.4" font-family="sans-serif" font-size="14.00" fill="#000000"> &#160;Providers</text>
<polygon fill="#fb8072" stroke="transparent" points="431,-10 431,-30 451,-30 451,-10 431,-10"/>
<text text-anchor="start" x="454.7258" y="-15.4" font-family="sans-serif" font-size="14.00" fill="#000000"> &#160;Exports</text>
<g id="clust1" class="cluster">
<title>cluster_PageLayoutModule</title>
<polygon fill="none" stroke="#000000" stroke-dasharray="1,5" points="8,-70 8,-268 538,-268 538,-70 8,-70"/>
</g>
<g id="clust2" class="cluster">
<title>cluster_PageLayoutModule_declarations</title>
<polygon fill="none" stroke="#000000" points="366,-78 366,-130 530,-130 530,-78 366,-78"/>
</g>
<g id="clust4" class="cluster">
<title>cluster_PageLayoutModule_imports</title>
<polygon fill="none" stroke="#000000" points="16,-78 16,-130 358,-130 358,-78 16,-78"/>
</g>
<g id="clust5" class="cluster">
<title>cluster_PageLayoutModule_exports</title>
<polygon fill="none" stroke="#000000" points="169,-208 169,-260 337,-260 337,-208 169,-208"/>
</g>
<!-- PageLayoutComponent -->
<g id="node1" class="node">
<title>PageLayoutComponent</title>
<polygon fill="#ffffb3" stroke="#000000" points="522.2021,-122 373.7979,-122 373.7979,-86 522.2021,-86 522.2021,-122"/>
<text text-anchor="middle" x="448" y="-99.8" font-family="Times,serif" font-size="14.00" fill="#000000">PageLayoutComponent</text>
</g>
<!-- PageLayoutModule -->
<g id="node2" class="node">
<title>PageLayoutModule</title>
<polygon fill="#8dd3c7" stroke="#000000" points="316.4201,-187 313.4201,-191 292.4201,-191 289.4201,-187 189.5799,-187 189.5799,-151 316.4201,-151 316.4201,-187"/>
<text text-anchor="middle" x="253" y="-164.8" font-family="Times,serif" font-size="14.00" fill="#000000">PageLayoutModule</text>
</g>
<!-- PageLayoutComponent&#45;&gt;PageLayoutModule -->
<g id="edge1" class="edge">
<title>PageLayoutComponent&#45;&gt;PageLayoutModule</title>
<path fill="none" stroke="#000000" d="M448,-122.1061C448,-141.3391 448,-169 448,-169 448,-169 326.3109,-169 326.3109,-169"/>
<polygon fill="#000000" stroke="#000000" points="326.3109,-165.5001 316.3109,-169 326.3109,-172.5001 326.3109,-165.5001"/>
</g>
<!-- PageLayoutComponent  -->
<g id="node5" class="node">
<title>PageLayoutComponent </title>
<polygon fill="#fb8072" stroke="#000000" points="328.7023,-252 177.2977,-252 177.2977,-216 328.7023,-216 328.7023,-252"/>
<text text-anchor="middle" x="253" y="-229.8" font-family="Times,serif" font-size="14.00" fill="#000000">PageLayoutComponent </text>
</g>
<!-- PageLayoutModule&#45;&gt;PageLayoutComponent  -->
<g id="edge4" class="edge">
<title>PageLayoutModule&#45;&gt;PageLayoutComponent </title>
<path fill="none" stroke="#000000" stroke-dasharray="5,2" d="M253,-187.1061C253,-187.1061 253,-205.991 253,-205.991"/>
<polygon fill="#000000" stroke="#000000" points="249.5001,-205.9909 253,-215.991 256.5001,-205.991 249.5001,-205.9909"/>
</g>
<!-- SectionWithCollapsibleModule -->
<g id="node3" class="node">
<title>SectionWithCollapsibleModule</title>
<polygon fill="#8dd3c7" stroke="#000000" points="349.8117,-122 346.8117,-126 325.8117,-126 322.8117,-122 156.1883,-122 156.1883,-86 349.8117,-86 349.8117,-122"/>
<text text-anchor="middle" x="253" y="-99.8" font-family="Times,serif" font-size="14.00" fill="#000000">SectionWithCollapsibleModule</text>
</g>
<!-- SectionWithCollapsibleModule&#45;&gt;PageLayoutModule -->
<g id="edge2" class="edge">
<title>SectionWithCollapsibleModule&#45;&gt;PageLayoutModule</title>
<path fill="none" stroke="#000000" d="M253,-122.1061C253,-122.1061 253,-140.991 253,-140.991"/>
<polygon fill="#000000" stroke="#000000" points="249.5001,-140.9909 253,-150.991 256.5001,-140.991 249.5001,-140.9909"/>
</g>
<!-- SubMenuModule -->
<g id="node4" class="node">
<title>SubMenuModule</title>
<polygon fill="#8dd3c7" stroke="#000000" points="137.9916,-122 134.9916,-126 113.9916,-126 110.9916,-122 24.0084,-122 24.0084,-86 137.9916,-86 137.9916,-122"/>
<text text-anchor="middle" x="81" y="-99.8" font-family="Times,serif" font-size="14.00" fill="#000000">SubMenuModule</text>
</g>
<!-- SubMenuModule&#45;&gt;PageLayoutModule -->
<g id="edge3" class="edge">
<title>SubMenuModule&#45;&gt;PageLayoutModule</title>
<path fill="none" stroke="#000000" d="M81,-122.1061C81,-141.3391 81,-169 81,-169 81,-169 179.4422,-169 179.4422,-169"/>
<polygon fill="#000000" stroke="#000000" points="179.4423,-172.5001 189.4422,-169 179.4422,-165.5001 179.4423,-172.5001"/>
</g>
</g>
</svg>
